<svg id="Layer_1" data-name="Layer 1" xmlns="http://www.w3.org/2000/svg" viewBox="0 0 544.46 342.14"><title>logo-B</title><path d="M463.48,328.37c-.56-9.1-1.49-18.18-1.62-27.28q-.76-51.51-1.06-103a125.64,125.64,0,0,1,1.12-17.45c1.63-12.22,8.18-17.67,23.15-20.75,17.4-3.58,34.74-7.46,52.07-11.34,7.21-1.61,8.79-3.56,8.58-11.08-.55-19-.54-38-2.31-56.89a82.74,82.74,0,0,0-8.13-28.34C526.21,33.87,509.83,27,490,28.09c-10.9.6-21.76,2.06-33.17,3.18.36,6.82.76,13.56,1.07,20.29s.37,13.65.85,20.46c.25,3.59-1.19,5.25-5.23,5.62-3.38-14.85-1.12-30-2.5-45.14-7.41,0-8.21.72-8.21.72s.86,34.62,1.06,49c0,1.89-1.45,3.8-2.23,5.7-1-2-2.71-4-2.79-6.08-.57-15.32-.82-30.65-1.18-46a23.53,23.53,0,0,0-.4-2.44l-44.1,4.06c.25.74.26,1.18.46,1.3,16.57,9.63,21,26.07,23,43.16,1.68,14.52,1.6,29.25,2.14,43.9.47,12.65.69,25.32,1.06,38,.24,8.44-3.37,13-13.38,11.35-15.35-2.56-30.66-5.4-46-7.76a90.35,90.35,0,0,0-13.59-.53c-3.37-.05-11.63.07-14.09,0,0-4.4-.38-8.89.1-13.28.51-4.68-1.55-6.26-5.71-7.37-15.31-4.1-30.54-8.47-45.75-12.92-5.41-1.59-7.63-5.17-6.24-10.66q4.56-18,9.9-35.87c.44-1.49,2.83-2.39,4.32-3.57.23,1.77,1,3.67.61,5.28-2.84,11.37-5.93,22.67-8,35l40.83-23.15-24.24-37c-.67.24-1,.26-1.24.46-1.3,1.35-2.55,2.73-3.81,4.1-.52-2-1.87-4.3-1.4-6.09,1.78-6.88,5.64-9.06,12.76-7.13,22.45,6.07,44.83,12.35,67.24,18.54,8.31,2.29,16.68,4.4,24.92,6.92,8.51,2.59,10.32,7.11,7.87,15.59-4.29,14.83-8.1,29.79-12.15,44.69-1,3.67-2,7.33-3.22,10.95-2.52,7.83-7.77,10.45-15.93,8.09q-16-4.62-31.93-9.17a21.06,21.06,0,0,0-3.45-.35l.68,11.88,11.92.37s25.07,2.66,37.57,4.3c6.42.84,12.75,2.29,19.14,3.32,4.11.67,6.52-.28,6.37-5.42-.66-23.14-.79-46.31-1.54-69.45-.42-12.8-2.31-25.37-8.18-37.12C398.68,46.8,390,40.56,378,39.89c-12.34-.69-21.46,5.29-27.94,15.71-1.38,2.23-2.15,7.19-5.92,4.94s-.07-5.74,1.33-8c6.84-11.2,16.82-17.53,30.07-18.74,19.36-1.76,38.68-3.89,58-5.65,3.62-.33,40.13-3.92,48.33-4.77,15.58-1.59,30.69-.8,43.9,9s19.93,23.37,21.75,39c2.15,18.3,2.66,36.79,3.63,55.21a127.08,127.08,0,0,1-.47,16.89c-.4,5.1-3,8.58-8.38,9.73q-22.8,4.84-45.54,10c-6.28,1.4-12.51,3-18.73,4.66-6.45,1.69-9.86,6.37-10.18,12.63-.85,16.95-1.74,33.93-1.65,50.89.14,25.83,1.12,51.65,1.69,77.47.12,5.47.18,10.95-.07,16.41-.07,1.36-1.49,2.65-2.29,4ZM303.71,59.63l-.62,1C313.44,76.1,323.75,91.56,334.15,107c4,6,5.94,6.39,12.31,3.3C357,105.13,367.61,100,378.15,94.83c5.65-2.78,11.23-5.74,18.22-9.32Zm22.47,44.91L285.24,128l.64,1.38,92.58,25.47-24.71-42.3C341.35,121.26,331.94,118.65,326.18,104.54ZM359,110.46l23.48,40,1.29-.25c5.59-19.86,11.18-39.71,17-60.47Z" transform="translate(-6.85)"/><path d="M28.77,15.85A76.59,76.59,0,0,1,34.85,22C49.07,40.23,64.77,57,84.07,69.85c10.45,7,21.44,13.14,32.18,19.67l1.17-1.11c-.71-3.1-1.32-6.22-2.16-9.28a155.81,155.81,0,0,1-5.47-49.29c.46-8.56,2.19-17.07,3.6-25.56.26-1.54,1.79-2.86,2.73-4.28,1.29,1.18,3,2.13,3.8,3.59,3.84,7.35,7.24,14.92,11.12,22.25a188.27,188.27,0,0,0,44.86,55.6c5.17,4.4,10,9.14,15.16,13.81,8.58-7,12.49-17,17.39-26.28,4.45-8.46,9.21-16.55,17.41-22,13.31-8.82,33.15-7.24,42.52,5.53,6.61,9,15,13.86,24.32,18.51,2.56,1.28,4.38,4,6.54,6.13-2.73.48-5.45,1.16-8.21,1.38-15.68,1.27-26.23,9.81-29.16,27-2.31,13.58-3.37,27.38-5.13,41.06-3.78,29.39-17,53.21-42,69.74-9.11,6-18.49,11.72-28.13,16.86-19.2,10.24-31.62,26.25-41.14,45.33-13.09,26.22-35.07,42.69-62,52.42-13.17,4.76-27.19,7.2-40.85,10.57a21.07,21.07,0,0,1-6.93.59c-1.73-.17-3.37-1.32-5-2,.91-1.63,1.43-3.74,2.77-4.83,8.27-6.69,16.79-13.05,25.09-19.7,19.55-15.67,36.4-34.1,53.18-52.59,3.24-3.58,6.4-7.25,9.88-10.57,1.44-1.37,3.63-1.93,5.48-2.87.51.68,1,1.35,1.52,2C102.66,281.9,75.71,311.26,42,335.66A175.27,175.27,0,0,0,92.2,321.49c23.73-10.86,40.88-28.36,51.93-51.71,9.14-19.33,23.71-32.73,42.06-43a281.41,281.41,0,0,0,34.21-22.18c16.75-12.92,25.91-30.83,29.23-51.58,2.37-14.9,3.84-29.94,6.15-44.85,1.63-10.46,4.76-20.6,13.73-27.26,4.38-3.25,9.73-5.19,15.55-8.19-9.38-1-13.31-8.16-18.47-14.18-10.11-11.81-21.2-14.41-34.72-8.4-9,4-13.53,12.4-18.15,20.51l-17.6,30.91a71.56,71.56,0,0,1,13,30.85c4.67,28.22-8.55,54.32-34.66,63.35-7.39,2.56-10.44,6.8-13.74,12.79a85,85,0,0,1-30,31.45c-24.27,14.95-49.22,28.79-73.81,43.23-13.29,7.81-27.08,15-37.57,26.73-2.4,2.67-4,6-6,9.1-1.78,2.78-1.75,5.42-.08,8.43.63,1.14-.44,3.24-.73,4.9C11,331.5,8.77,331,8.15,329.74,5.54,324.3,7.23,319,10,314.18c5.36-9.3,13.2-16.4,22.21-21.82,16.35-9.85,33.29-18.71,49.68-28.49,18.38-11,38-20.15,53.94-34.72,7.74-7.08,13.79-16,20.48-24.23,1.08-1.32,1.53-3.15,2.33-4.85-22.32-.56-41.34-8.78-58.47-21.81-27-20.53-45.53-47.21-57.69-78.76-9.9-25.7-14.23-52.32-15.4-79.63a5.87,5.87,0,0,1,.2-2A11.12,11.12,0,0,1,28.77,15.85Zm4.39,13.36a9.35,9.35,0,0,0-.34,2.11c2.64,18.25,5,36.49,10.81,54.16C57,126.2,79.22,160.12,116.84,182.33c11.85,7,24.66,11.43,38.74,11.75,4.87.11,6.44-2.06,7.07-6.17,3.26-21.31-1.66-39.84-18.19-54.56-9.87-8.78-16.54-19.77-22-31.69a14.34,14.34,0,0,0-6.14-6.42C91.69,82.88,68.76,68.18,49.82,47.85,44.31,41.93,39,35.8,33.16,29.21ZM167.93,191.73a7.4,7.4,0,0,0,2,0c23.26-7.39,34.76-27.85,34.51-49.84-.16-12.81-4.4-24.69-11.81-35.32-1.58-2.26-2.85-3.12-5.6-1.43-6.42,3.93-13.74,4.89-21,4.65-11.67-.38-22.79-3.55-33.62-7.8-1.07-.42-2.22-.61-4-1.08a93.34,93.34,0,0,0,22.42,31.27c12.7,11.84,18.57,26.45,18.14,43.67C168.83,181.09,168.29,186.34,167.93,191.73ZM118.31,11l-1.48.41c-.6,6.53-1.56,13.05-1.74,19.6a174.33,174.33,0,0,0,9,59.28,6.5,6.5,0,0,0,3.5,3.65c9.88,3.38,19.69,7.27,29.85,9.4,9.54,2,19.44,1.63,29.48-4.47C157.73,74.13,132,47.2,118.31,11Z" transform="translate(-6.85)"/></svg>