<svg id="Layer_1" data-name="Layer 1" xmlns="http://www.w3.org/2000/svg" viewBox="0 0 1024 645"><defs><style>.cls-1{fill:#fff;}</style></defs><title>logo</title><path class="cls-1" d="M1512,692V922H547c16.55-3.53,33.14-6.84,49.63-10.63,25.55-5.86,50.11-14.58,73.14-27.2,37.29-20.43,64.24-50.56,82.81-88.62,10.12-20.75,23.11-39.55,40.56-55,3.62-3.2,7.32-6.3,11.63-10-5,0-9.23.77-12.93-.24-3.05-.84-4.64,0-6.53,1.71a175.59,175.59,0,0,0-34.65,43.58c-7.31,13-13.89,26.53-22,39-16.06,24.67-37.57,43.86-62.9,58.74-27.12,15.92-56.79,25-87.23,31.83-7,1.58-14.21,2.51-21.32,3.74,8.15-7.46,16.83-13.8,25.16-20.57,35.88-29.17,68.3-61.93,99.13-96.29q16.5-18.4,32.59-37.16c1.25-1.45,1.36-3.89,2-5.88-2.11-.11-4.84-1.13-6.21-.18-5,3.48-10.08,7.15-14.24,11.58-13,13.82-25.64,27.95-38.28,42.09C622.15,842,581.37,875.09,539.51,907c-7.52,5.72-7.52,10.51.49,15H488V892c.91,2.07,1.31,4.76,2.86,6.07,2.17,1.84,5.2,2.65,7.86,3.89.61-2.33,1.68-4.66,1.68-7,0-2.06-1.6-4.09-1.74-6.19-.19-2.7-.28-5.73.75-8.12A86.07,86.07,0,0,1,506.12,869c10.06-15.9,24.73-27.13,40.36-36.54,43.28-26.06,87.15-51.15,130.77-76.66,13.11-7.67,26.16-15.43,39.63-23.38l-8.26-5.17c-26.66,15.75-52.72,31.4-79,46.62-29.18,16.87-58.67,33.19-87.87,50-19.81,11.42-37.5,25.28-48.56,46-1.92,3.59-3.44,7.38-5.15,11.08V277H1512V690l-3.16-2c-1.79,2.29-3.29,4.5-5.07,6.45-6.27,6.87-12.28,14-19.15,20.25-2.33,2.11-7.65,3.35-10.28,2.13-4.14-1.91-2.14-6.65-1-10.29,3.66-11.48,10.72-20.9,18.21-30.08,4.47-5.47,4.35-6.09.1-10.8l-23.31,5.07c2-5.5,3.81-9.55,4.77-13.81.75-3.37-1-6.26-4.88-5.81-5.77.68-9.55,4.72-12,9.58-2.07,4.17-3.24,8.7.43,13.06.7.83.54,3.22-.16,4.28-8.72,13.25-17.89,26.32-31.69,34.72-4.85,2.95-11.1,4.27-16.85,4.85-5.39.53-7.85-3.38-8.85-10-.78-5.21,1.74-6.7,6.28-8,11.08-3.17,21.78-7.33,29.63-16.51,4.13-4.82,5.82-11.85,3.27-16.13-3.23-5.4-8.6-6-14.06-5.22-14.94,2.2-25,11.28-32.92,23.55a185.58,185.58,0,0,1-15.49,21.35A47,47,0,0,1,1362.13,717c-5.59,2.87-8.7.27-8-5.94a24.27,24.27,0,0,1,2.41-8c6.85-13.67,13.79-27.3,21-40.79a7.58,7.58,0,0,1,5.33-3.23c5.63-.41,11.33.14,17-.29,1.55-.12,3-2.35,4.41-3.62-1.44-.71-2.86-2-4.34-2-5.44-.25-10.9-.1-17-.1l14-24.81c-4.54.68-7.75,1.51-11,1.56-4.64.09-7.26,2.6-9.27,6.32-2.61,4.82-5.23,9.63-8,14.37-.59,1-1.7,2.46-2.59,2.48-8.55.19-17.1.11-26.46.11l13.72-23.43c-8.53-2.13-15.39,1-19.73,7.5-5.14,7.69-6.93,20.14-21.2,16.34-.68-.18-2,2-3,3.15,1.1.74,2.14,2,3.3,2.12a78.33,78.33,0,0,0,8.79.1c-4.88,9.22-8.93,17.78-13.79,25.85-7.72,12.81-17.2,24.21-30.85,31.06-9.07,4.55-21.09,4.13-21.41-10.58-.07-3,.75-4.41,4-5,10.14-1.79,19.66-5.55,27.41-12.37a33.6,33.6,0,0,0,8.7-12.31,9.72,9.72,0,0,0-8.49-13.49c-5.1-.4-10.85.11-15.47,2.14-17.62,7.75-27,22.38-31.43,40.57a22.58,22.58,0,0,0,.11,8.43c1.37,8.87,7.61,14.62,16.6,15.16a35.26,35.26,0,0,0,23.11-6.44c6.17-4.39,11.9-9.39,18-14.3-.43,2.57-1,5-1.21,7.38-.59,9,4.17,13.8,13.11,13.51,6.87-.22,12.36-3.64,17.38-7.82,4.24-3.53,8.13-7.47,12.69-11.71-1.75,6.33-2.7,12,2.26,16.44,4.45,4,9.87,4,15,2a49.4,49.4,0,0,0,12.14-6.65c5-3.91,9.43-8.61,14.44-13.28.07,1.26.12,2.06.17,2.85.77,11.83,8.07,18.59,19.91,18.15,10.07-.37,18.53-4.9,26.26-10.94,12.53-9.79,21-23,30.1-35.74,1.21-1.7,2.76-4.13,4.4-4.35,4.46-.61,9.06-.21,13.6-.21a16.06,16.06,0,0,1-3.91,6.19c-7.9,8.26-14.91,17-16.93,28.75-2,11.54,6.44,19.5,17.27,15.27a50.14,50.14,0,0,0,16.9-10.91C1499,708.89,1505.24,700.19,1512,692Zm-158.21-67.33a11.1,11.1,0,0,0,.38-1.32c.16-1.33.4-2.65.43-4,.3-13.6,7-22.06,20.25-25.34,6.27-1.54,12.43-3.52,18.71-5,14.41-3.39,28.87-6.56,43.3-9.87q30.62-7,61.2-14.15a14,14,0,0,0,10.82-10.7,62.63,62.63,0,0,0,2.1-15.25c-.25-40.64-1.5-81.24-6-121.67-2.2-19.64-7.68-38.13-18.44-54.77-13.71-21.19-33.61-33.7-57.77-39.71-15.45-3.85-31.19-2.43-46.75-1.23-22,1.7-44,4.28-66,6.43-21,2.05-42.09,4-63.12,6.06-22.19,2.2-44.35,4.88-66.57,6.71-17.91,1.48-34.8,5.48-47.73,18.63-7,7.14-12.68,15.7-18.55,23.9-2.36,3.28-1.25,6.87,2.26,9,3.88,2.35,6.18-.18,8-3.29,1.1-1.86,2.1-3.78,3.16-5.67,11.67-20.81,29.22-31.24,53.27-30,15.25.78,28.35,6.86,37.89,18.59,13.68,16.84,20.44,37.1,22.85,58.24,2.36,20.63,2.61,41.53,3.21,62.33.82,28.48,1.1,57,1.58,85.44A124.56,124.56,0,0,1,1252,592c-.38,3.87-3.24,5.76-7,5.4-5-.47-9.9-1.28-14.83-2-20.2-3.11-40.33-6.82-60.61-9.22-17.5-2.07-35.16-2.65-52.75-3.91-2.19-.15-4.87.6-5-3.13-.24-6.09-.71-12.18-1.12-18.88a38,38,0,0,1,5.18.6c6.91,1.85,13.78,3.84,20.67,5.75,14.42,4,28.73,8.47,43.29,11.84,15.2,3.51,23.38-1.71,28-16.56,1.62-5.23,2.87-10.59,4.32-15.87,8.19-29.82,16.56-59.59,24.53-89.46,4.4-16.51,0-23.71-16.62-28.5-11.34-3.26-22.73-6.35-34.11-9.48q-47.36-13-94.71-26c-16.5-4.5-33-8.94-49.63-13.06-6.27-1.55-11.11,1.17-14.46,6.9-5,8.48-4.95,11.66.16,18.05l8.49-7,45.2,69.32-75.79,43c1.38-7,2.35-12.84,3.72-18.61,3.83-16.18,7.92-32.29,11.64-48.49.56-2.44-.27-5.2-.48-8.14-7,2.2-9.7,6.59-11.22,12.23-2.5,9.3-5.44,18.49-7.88,27.8-3.29,12.53-6.63,25.07-9.29,37.74-1.75,8.3,1.64,13.4,9.72,16.07,7.89,2.61,15.89,4.88,23.88,7.17,20.45,5.84,40.87,11.8,61.39,17.34,12.11,3.27,13.61,4.83,13.46,17.46-.08,7.26,0,14.52,0,21.84,1.67.12,2.66.22,3.65.26,16.44.63,33,.27,49.3,2.11,23,2.57,45.72,6.8,68.58,10.26,6,.91,12.1,2.08,18.17,2.2a66.27,66.27,0,0,0,15.23-1.93c2.24-.49,5.41-2,6-3.8,1.62-5,3-10.3,2.88-15.47-.67-37.8-1.84-75.6-2.6-113.4-.49-24.36-2.39-48.48-9.07-72.06-4.47-15.76-12-29.53-24.57-40.27-4-3.47-8.34-6.66-13.28-10.58,20.61-2.15,40.24-4.22,59.88-6.22,22.34-2.27,44.68-4.56,67-6.66,21.51-2,43-4.55,64.59-5.46,19.33-.82,37,5.42,52.53,17.3,16.44,12.55,24.64,30.22,30.61,49.17,5.78,18.37,7.78,37.31,8.21,56.57.63,27.64,2.25,55.25,3.17,82.88.45,13.59-1.82,16.87-15,20-22.65,5.36-45.47,10-68.19,15.08-14.92,3.32-30,6.12-44.64,10.41-23.31,6.85-29.64,21.93-30.28,43.79ZM529.15,306.94c-4.77,6.05-3.42,11.94-3.06,17.34,2.08,31.06,4.73,62.08,13.56,92.12,5.61,19.11,11.12,38.32,18.11,56.94,9.61,25.63,23.14,49.37,38.89,71.77a274.92,274.92,0,0,0,39.91,45.79c4.92,4.47,9.19,10.41,15,13,6.11,2.74,11.85,4.67,14.34,11.44,26.64,19.65,55.65,33.76,88.91,37.82,5.85.71,11.73,1.14,18.27,1.77a333.83,333.83,0,0,1-46.47,57.71c4.82,2.52,7.79-.57,9.94-3,6.51-7.3,12.61-15,18.6-22.73,5.58-7.23,9.64-16.16,16.48-21.78a110,110,0,0,1,29.93-17.53c27.43-10.47,48.15-28,59.48-54.93,17.43-41.41,10.15-80.7-13.33-117.76-2.73-4.32-3.22-7.92-.57-12.4,11.16-18.9,22-38,33.18-56.88,7.36-12.47,14.73-25,28.48-31.81,15-7.45,30.23-9.85,46-2.48,9.94,4.64,17.15,12.38,23.94,20.67,6.38,7.81,11.94,16.56,22.1,20.27l7.65,2.83c-.44.6-.5.8-.63.86-2.86,1.34-5.69,2.73-8.59,4-21,9-36.34,23.62-40.61,46.51-4.93,26.46-8.39,53.21-11.72,79.94-2.88,23.06-6.84,45.69-17.67,66.58-2.72,5.24-5.35,10.54-7.92,15.62l10.95,4c5.27-11.84,11.22-23.53,15.76-35.75,9.59-25.87,10.6-53.37,14.24-80.37,2.32-17.28,4.82-34.59,8.44-51.63,2.24-10.55,8.52-19.38,17.22-26.21,10.88-8.54,23.41-12.26,37-13.28,4-.31,8-1.25,12.81-2a49.19,49.19,0,0,0-18.82-15.46c-16.6-8.09-30.6-19.1-41.77-34a41.55,41.55,0,0,0-13.29-11c-25.5-13.76-57.29-7.74-77.41,14.17-12.22,13.31-19.58,29.63-27.74,45.39C852.25,435,845,446.74,834.57,456.74c-1.57-1.28-3-2.35-4.35-3.56-6.63-6.07-13-12.41-19.85-18.25-41.8-35.71-75.49-77.62-98.54-127.8-3.81-8.3-8.08-16.41-12.7-24.29-3.28-5.61-6.85-5.29-9.69.46a27.63,27.63,0,0,0-2.31,7.58c-1.6,9.51-3.67,19-4.34,28.58-1.1,15.58-2.09,31.25-1.56,46.83.85,25,6.78,49.37,13,73.56a47.65,47.65,0,0,1,.62,6.23c-5.15-2.83-9.32-4.81-13.19-7.28-21.58-13.74-43.8-26.62-64.46-41.64-29.68-21.57-53.59-49.22-76.32-77.85C537.47,315,533.29,311.26,529.15,306.94ZM752.56,727.28c4.46,0,8.27.33,12-.14a7.55,7.55,0,0,0,4.91-3.08c4.45-7.39,7.92-15.44,12.88-22.44a278.1,278.1,0,0,1,21.37-26.12c1.88-2.07,6.13-2,9.29-2.91.12,3.28.31,6.56.32,9.84a5.83,5.83,0,0,1-.92,2.3c-6,12-12.13,24-18.13,36.07-.9,1.81-1.47,3.78-2.39,6.19,4.37,0,7.86-.16,11.34,0,3.18.18,4.86-.84,6.46-3.92,5.5-10.61,10.84-21.43,17.63-31.2,4.92-7.07,11.89-12.78,18.32-18.7,1.23-1.12,5-1.25,6.13-.22s.76,4.13.75,6.32a6.6,6.6,0,0,1-1.17,2.72q-5.93,10.69-11.89,21.35c-2.82,5.08-4.4,10.43-3.13,16.28s4.08,8.14,10,8.69c7.41.69,13.26-2.71,18.51-7.28,4.72-4.09,9.12-8.55,14.3-13.45a50.06,50.06,0,0,0-1,6.06c-.15,4.65-.65,9.56,3.71,12.8a11.77,11.77,0,0,0,14.09.31c6.48-4.22,13.21-8.47,18.52-14,7.42-7.7,13.63-16.55,20.37-24.91-2.72,6.47-6.15,12.65-9.4,18.92-3.34,6.43-6.5,12.95-10.21,20.38,3.86,0,7-.34,10,.08,4.6.63,6.42-1.67,8.64-5.39,7.66-12.81,15.57-25.51,24.19-37.68,3.33-4.72,8.49-8.4,13.41-11.65,3.75-2.47,6.65,0,5.7,4.41a30,30,0,0,1-3,7.3c-4.41,8.56-9.18,16.94-13.32,25.63-2.52,5.29-2.13,11,2.07,15.37S973,730.06,978,727.06c6.87-4.18,13.07-9.49,19.46-14.44,1.41-1.09,2.41-2.72,4.27-4.88,0,3.38-.09,5.38,0,7.37.54,10.45,7.25,15.46,17.28,12.68a26.12,26.12,0,0,0,7.57-3.66c3.09-2.1,5.85-4.67,9.7-7.81-3.51,7.79-6.34,13.9-14,17.61-10.4,5-20.11,11.63-29.69,18.18-6.2,4.24-11.25,9.87-13.89,17.25-3.57,10,1.34,17.37,11.77,18,9.44.53,16.55-4,23.1-10,11.54-10.57,19-23.9,25.43-37.87,2.67-5.84,6.15-10.21,11.89-13.29A101.49,101.49,0,0,0,1085.62,696c2.47-3.42,2.53-4.07.13-8-10.27,13.93-22.46,25.53-38.68,34.46l31-60.76c-7.8,2-16-.92-18.72,8.86-3.1-7.73-5.32-9.53-13.32-8.63-13.78,1.55-23.88,9.57-31.89,20.26-8.87,11.84-16.46,24.79-28.88,33.45-2.34,1.62-6.71,2.68-8.94,1.58-3.55-1.77-1.44-5.66,0-8.39,3.69-7.06,7.9-13.86,11.37-21a56.79,56.79,0,0,0,5.28-14.89c1.35-7.93-3.66-13.17-11.43-11.18-6.34,1.62-12.34,5.35-17.93,9-5.09,3.32-9.42,7.8-14.09,11.77l1.51,1.32c1-4.62,2.54-9.2,3-13.88.39-4-1.81-7-6.28-7.52-4.16-.49-6.56,1.54-7.82,5.35-.63,1.88-1.11,3.95-2.26,5.5-8.69,11.74-17.35,23.53-26.44,35-2.72,3.43-6.57,6.15-10.35,8.48-1.84,1.13-4.7.62-7.1.85-.22-2.5-1.29-5.3-.51-7.43a155.78,155.78,0,0,1,8-18.19c4.92-9.53,10.24-18.85,15.41-28.28-5-2.34-15,.14-17.37,4.38-7.9,14.13-16.67,27.64-28.08,39.22a72.09,72.09,0,0,1-11.34,9.62c-1.87,1.23-4.91.69-7.42.95-.24-2.5-1.1-5.14-.54-7.45.72-3,2.58-5.69,3.93-8.52,4.19-8.83,9.14-17.4,12.33-26.57,3.31-9.5-2.67-15.92-12.42-13.26-6.33,1.73-12.21,5.71-17.75,9.47-3.58,2.45-6.18,6.33-10,10.42.82-2.78,1.43-4.45,1.81-6.18,2.23-10.16-2.91-15.74-13-13.72-7.93,1.58-14.14,6.44-19.66,12.11-3.28,3.36-6.28,7-9.59,10.7,1.17-4.53,2.55-8.6,3.22-12.77,1.18-7.4-4.21-11.51-11.15-8.51a16.16,16.16,0,0,0-5.89,4.39c-4,4.88-7.48,10.19-11.45,15.09-8.37,10.3-16.76,20.58-25.5,30.57-2.82,3.21-7.06,6.42-11.41,3.3-4.08-2.93-2-7.54-.65-11.49,3.49-10.46,9.9-19.11,16.88-27.44,5.51-6.57,5.5-7.67.57-13.22-14.3,5.29-16.66,5.75-22.79,4.47,1.79-3.55,3.94-6.95,5.27-10.65,1.72-4.78-1.48-8.77-5.86-7.4-9.13,2.85-18.23,13.44-9.91,24.77-8.9,13.93-18.78,27.25-31.26,38.47-3.06,2.74-7.34,5.58-10.57,2.84-1.71-1.45-1.05-7.29.27-10.42,3.53-8.4,8-16.43,12.11-24.57,3.21-6.29,6.53-12.52,10.47-20.06-4.62.49-8.2.27-11.32,1.38s-5.46,3.5-7.22,4.7c-2.6-2.05-5-5.31-8-6A21.36,21.36,0,0,0,651,663c-21.61,8.9-34.07,25.5-37.82,48.32-1.82,11,6.71,19.25,16.42,16.76a25.77,25.77,0,0,0,8.53-4c4.6-3.33,8.82-7.2,13.41-11v2.33c.16,12.11,7.18,16.65,18.11,11.07,5.24-2.68,10.66-6,14.42-10.38,9.6-11.22,18.29-23.21,27.4-34.84,1.17-1.5,2.54-3.8,4-3.95,4.78-.5,9.66-.19,14.5-.19l.69,1.64c-3,2.79-6.35,5.37-9.11,8.44-6.74,7.47-12.93,15.46-13.81,25.94-1,12,9.54,19,20.31,13.67a49.27,49.27,0,0,0,11.19-7.37c12.3-11.13,21.69-24.68,30.92-38.33,1.92-2.84,4.06-5.53,6.09-8.29l2.08,1.27C769.87,691.6,761.39,709.09,752.56,727.28ZM1179.79,717c.5-1.64.5-2.21.79-2.52,9.57-10.1,17-21.69,23.46-33.91a5.16,5.16,0,0,1,3.51-2.17c21.22-2.77,37.92-13.65,51.79-29.22a39.78,39.78,0,0,0,9.8-22.56c.9-8.47-4.7-18-15.42-17.88-9.9.13-18.14,3.74-25.62,9.51-9.07,7-16,15.94-21.68,25.87s-10.83,19.76-16.17,29.55c-2.13-.32-4.09-.59-6-.9-12.76-2-20.45-13.38-17-25.62,2.92-10.2,10.6-15.21,20.47-17.54a29.78,29.78,0,0,0,4.7-2l-.66-2.11c-8.7-2-16.58,1.21-23.9,5.61-9.26,5.57-14.88,14.09-12.77,25,3.33,17.24,17.06,21.7,33.3,23.19-5.45,9-10.42,17.15-15.42,25.33-3.92,6.41-3.84,6.1-11,3.65-10.8-3.72-21.77-6-33.17-2.11-9.38,3.23-14.41,10.11-12.25,17.67,1.9,6.66,7.36,9.12,13.44,10.37,12.83,2.62,24.37-1.12,35.17-7.75,2.49-1.53,4.36-2.06,7.18-.45a108.82,108.82,0,0,0,14.44,6.72c16.48,6.39,33.28,0,40.92-15.55.69-1.41.31-3.34.43-5l-1.65-.7c-5.48,7.28-12.34,12.53-21.56,11.28C1196.52,721.59,1188.28,719,1179.79,717ZM564.2,682.37l.81,1.28c-4.07,6.83-7.92,13.82-12.27,20.46-5.85,8.92-12.15,17.49-21.51,23.24-8.59,5.28-21.12,4.81-28.07-1.24-6.44-5.62-5.49-11.6,2.44-14.35,3.91-1.35,5.85-3.64,5.18-7.82s-3.45-6.42-7.27-6c-3.23.35-7,1.43-9.31,3.54-9.48,8.81-5.88,26.76,6.22,32.53a40.45,40.45,0,0,0,23.85,3.46c16.56-2.5,29.31-11.74,39.3-24.4,7.06-8.94,12.43-19.21,18.68-28.81.88-1.35,2.4-3,3.78-3.15a105.36,105.36,0,0,1,11.64-.15c-1.09,5.91-2.3,11.06-2.82,16.28-.16,1.56,1.63,3.31,2.53,5,1-1.42,2.4-2.72,2.81-4.29,2.22-8.6,3.87-17.43,14.22-20.43a5.39,5.39,0,0,0,3.14-3c.65-2,1.37-4.86.42-6.2s-4.34-2.6-5.92-2c-3.11,1.21-5.71,3.74-8.54,5.7-1.43,1-2.85,2.56-4.39,2.72-3.86.4-7.79.13-12.37.13,3.36-6.13,6-11.64,9.3-16.8,5.08-8.1,9.33-17,18.51-21.68.71-.36.9-1.76,1.33-2.68-.83-.34-1.83-1.15-2.47-.93-4,1.38-8.45,2.34-11.94,4.64a74.07,74.07,0,0,0-23.77,25.2C572.9,671,567.57,678,557,678.78a9.19,9.19,0,0,0-3.75,1.3c-3.85,2.27-7.67,4.59-11.35,7.11a3,3,0,0,0-.52,2.91,3.33,3.33,0,0,0,2.94.67c1.41-.38,2.61-1.45,4-2C553.6,686.58,558.9,684.49,564.2,682.37Zm95.15-72.86-1.79-.85c-7.39,8.92-17.36,8.43-27.21,7.64-13.41-1.08-26.78-2.78-40.19-3.85-20.58-1.64-40.61.65-59,10.77-11.75,6.46-20.76,15.51-23,29.55-2.34,14.48,7.24,25.69,21.88,25.68A40.91,40.91,0,0,0,569.17,648c.38-1.53-.67-3.41-1-5.13-1.13,1.14-2.65,2.09-3.33,3.46-5.57,11.21-13.39,19.77-26,23-13.31,3.46-23.83-4.95-21.6-17.6a26.11,26.11,0,0,1,4.33-10.45c7-9.65,17.25-14.16,28.51-16.73,16-3.65,31.81-1.57,47.54,1.31,12.87,2.36,25.73,3.64,38.72,2.09,8.9-1.06,16.59-4.87,21.64-12.64C659,613.79,658.92,611.49,659.35,609.51Zm681.93,120.15c0,17.75-.38,35.54.08,53.3.92,35.75,2.27,71.48,3.53,107.22.1,2.78-.37,7.16,3.73,6.69,2.11-.25,4.05-4,5.54-6.54.76-1.28.47-3.25.47-4.91,0-9.65.15-19.3-.12-28.95-.68-25.27-1.63-50.53-2.33-75.8-.41-14.8-.49-29.61-.9-44.41a5.48,5.48,0,0,0-2.25-4.07C1346.62,730.93,1343.8,730.43,1341.28,729.66Zm-433.5-82.72q-17,13.34-34,26.68a5.73,5.73,0,0,0-1.9,2.24c-2.17,5.84-4.2,11.73-6.46,18.1,3.87-2.64,7.36-5.35,11.15-7.52,9-5.16,16.53-11.58,20.42-21.56,1.54-3.94,4.88-5.18,8.82-5.29s7-1.55,8.82-5.1Zm21.44-6.63c.12-4.19-3.07-7.3-7.6-7.42-5.48-.14-10.8,4.8-11,10.19-.14,4.32,2.81,7.26,7.54,7.48A10.22,10.22,0,0,0,929.22,640.31Zm-91.35,56.93c-12.46,5-21,13.53-24.65,27.24,6.1-3.5,11.81-6.72,17.46-10.06a4.63,4.63,0,0,0,1.84-2.25C834.36,707.28,836.06,702.34,837.87,697.24Zm507.64-47.6c7.61.57,9.56-2.86,7.82-13.34Z" transform="translate(-488 -277)"/><path d="M1512,692c-6.76,8.19-13,16.89-20.47,24.38a50.14,50.14,0,0,1-16.9,10.91c-10.83,4.23-19.25-3.73-17.27-15.27,2-11.75,9-20.49,16.93-28.75a16.06,16.06,0,0,0,3.91-6.19c-4.54,0-9.14-.4-13.6.21-1.64.22-3.19,2.65-4.4,4.35-9.11,12.7-17.57,26-30.1,35.74-7.73,6-16.19,10.57-26.26,10.94-11.84.44-19.14-6.32-19.91-18.15,0-.79-.1-1.59-.17-2.85-5,4.67-9.42,9.37-14.44,13.28a49.4,49.4,0,0,1-12.14,6.65c-5.15,2-10.57,2-15-2-5-4.45-4-10.11-2.26-16.44-4.56,4.24-8.45,8.18-12.69,11.71-5,4.18-10.51,7.6-17.38,7.82-8.94.29-13.7-4.53-13.11-13.51.16-2.42.78-4.81,1.21-7.38-6.15,4.91-11.88,9.91-18,14.3a35.26,35.26,0,0,1-23.11,6.44c-9-.54-15.23-6.29-16.6-15.16a22.58,22.58,0,0,1-.11-8.43c4.38-18.19,13.81-32.82,31.43-40.57,4.62-2,10.37-2.54,15.47-2.14a9.72,9.72,0,0,1,8.49,13.49,33.6,33.6,0,0,1-8.7,12.31c-7.75,6.82-17.27,10.58-27.41,12.37-3.25.58-4.07,2-4,5,.32,14.71,12.34,15.13,21.41,10.58,13.65-6.85,23.13-18.25,30.85-31.06,4.86-8.07,8.91-16.63,13.79-25.85a78.33,78.33,0,0,1-8.79-.1c-1.16-.14-2.2-1.38-3.3-2.12,1-1.11,2.35-3.33,3-3.15,14.27,3.8,16.06-8.65,21.2-16.34,4.34-6.51,11.2-9.63,19.73-7.5L1339.54,653c9.36,0,17.91.08,26.46-.11.89,0,2-1.46,2.59-2.48,2.75-4.74,5.37-9.55,8-14.37,2-3.72,4.63-6.23,9.27-6.32,3.22-.05,6.43-.88,11-1.56l-14,24.81c6.15,0,11.61-.15,17,.1,1.48.07,2.9,1.33,4.34,2-1.46,1.27-2.86,3.5-4.41,3.62-5.63.43-11.33-.12-17,.29a7.58,7.58,0,0,0-5.33,3.23c-7.19,13.49-14.13,27.12-21,40.79a24.27,24.27,0,0,0-2.41,8c-.67,6.21,2.44,8.81,8,5.94a47,47,0,0,0,13.75-10.45,185.58,185.58,0,0,0,15.49-21.35c7.92-12.27,18-21.35,32.92-23.55,5.46-.81,10.83-.18,14.06,5.22,2.55,4.28.86,11.31-3.27,16.13-7.85,9.18-18.55,13.34-29.63,16.51-4.54,1.3-7.06,2.79-6.28,8,1,6.65,3.46,10.56,8.85,10,5.75-.58,12-1.9,16.85-4.85,13.8-8.4,23-21.47,31.69-34.72.7-1.06.86-3.45.16-4.28-3.67-4.36-2.5-8.89-.43-13.06,2.41-4.86,6.19-8.9,12-9.58,3.85-.45,5.63,2.44,4.88,5.81-1,4.26-2.82,8.31-4.77,13.81l23.31-5.07c4.25,4.71,4.37,5.33-.1,10.8-7.49,9.18-14.55,18.6-18.21,30.08-1.16,3.64-3.16,8.38,1,10.29,2.63,1.22,8,0,10.28-2.13,6.87-6.22,12.88-13.38,19.15-20.25,1.78-1.95,3.28-4.16,5.07-6.45l3.16,2Zm-147.76-32.92c-9.08,0-17.2-.1-25.31.1a4.76,4.76,0,0,0-3.37,2.27C1328.24,675.22,1320.93,689,1314,703c-1.48,3-1.74,6.7-2,10.12-.26,3.78,2.1,5.84,5.7,4.62a29.16,29.16,0,0,0,9.45-5.07C1344.06,698.31,1353.29,678.68,1364.24,659.08Zm-107.6,36.77c12.27-3.43,21.86-8.22,27.22-18.69,1.15-2.25.23-5.57.26-8.39-2.66.21-5.74-.38-7.89.76C1266.15,674.92,1261.34,684.47,1256.64,695.85Zm144.26-1.5,1,1.24c3.75-1.56,8-2.44,11.13-4.86A89.41,89.41,0,0,0,1427,677c1.34-1.64.34-5.19.42-7.87-2.61.18-5.67-.47-7.74.68C1409.88,675.24,1405.15,684.67,1400.9,694.35Z" transform="translate(-488 -277)"/><path d="M540,922c-8-4.51-8-9.3-.49-15,41.86-31.89,82.64-65,117.83-104.43,12.64-14.14,25.3-28.27,38.28-42.09,4.16-4.43,9.21-8.1,14.24-11.58,1.37-1,4.1.07,6.21.18-.64,2-.75,4.43-2,5.88Q698,773.68,681.48,792.1c-30.83,34.36-63.25,67.12-99.13,96.29-8.33,6.77-17,13.11-25.16,20.57,7.11-1.23,14.29-2.16,21.32-3.74,30.44-6.84,60.11-15.91,87.23-31.83,25.33-14.88,46.84-34.07,62.9-58.74,8.13-12.49,14.71-26,22-39a175.59,175.59,0,0,1,34.65-43.58c1.89-1.73,3.48-2.55,6.53-1.71,3.7,1,7.88.24,12.93.24-4.31,3.71-8,6.81-11.63,10-17.45,15.41-30.44,34.21-40.56,55-18.57,38.06-45.52,68.19-82.81,88.62-23,12.62-47.59,21.34-73.14,27.2-16.49,3.79-33.08,7.1-49.63,10.63Z" transform="translate(-488 -277)"/><path d="M488,881c1.71-3.7,3.23-7.49,5.15-11.08,11.06-20.72,28.75-34.58,48.56-46,29.2-16.83,58.69-33.15,87.87-50,26.32-15.22,52.38-30.87,79-46.62l8.26,5.17c-13.47,7.95-26.52,15.71-39.63,23.38-43.62,25.51-87.49,50.6-130.77,76.66-15.63,9.41-30.3,20.64-40.36,36.54a86.07,86.07,0,0,0-6.71,11.63c-1,2.39-.94,5.42-.75,8.12.14,2.1,1.75,4.13,1.74,6.19,0,2.33-1.07,4.66-1.68,7-2.66-1.24-5.69-2.05-7.86-3.89-1.55-1.31-1.95-4-2.86-6.07Z" transform="translate(-488 -277)"/><path d="M1353.79,624.67l-11.5,1.53c.64-21.86,7-36.94,30.28-43.79,14.64-4.29,29.72-7.09,44.64-10.41,22.72-5.06,45.54-9.72,68.19-15.08,13.15-3.11,15.42-6.39,15-20-.92-27.63-2.54-55.24-3.17-82.88-.43-19.26-2.43-38.2-8.21-56.57-6-18.95-14.17-36.62-30.61-49.17-15.55-11.88-33.2-18.12-52.53-17.3-21.57.91-43.08,3.44-64.59,5.46-22.37,2.1-44.71,4.39-67,6.66-19.64,2-39.27,4.07-59.88,6.22,4.94,3.92,9.23,7.11,13.28,10.58,12.56,10.74,20.1,24.51,24.57,40.27,6.68,23.58,8.58,47.7,9.07,72.06.76,37.8,1.93,75.6,2.6,113.4.1,5.17-1.26,10.51-2.88,15.47-.57,1.77-3.74,3.31-6,3.8a66.27,66.27,0,0,1-15.23,1.93c-6.07-.12-12.13-1.29-18.17-2.2-22.86-3.46-45.63-7.69-68.58-10.26-16.31-1.84-32.86-1.48-49.3-2.11-1,0-2-.14-3.65-.26,0-7.32-.07-14.58,0-21.84.15-12.63-1.35-14.19-13.46-17.46-20.52-5.54-40.94-11.5-61.39-17.34-8-2.29-16-4.56-23.88-7.17-8.08-2.67-11.47-7.77-9.72-16.07,2.66-12.67,6-25.21,9.29-37.74,2.44-9.31,5.38-18.5,7.88-27.8,1.52-5.64,4.2-10,11.22-12.23.21,2.94,1,5.7.48,8.14-3.72,16.2-7.81,32.31-11.64,48.49-1.37,5.77-2.34,11.63-3.72,18.61l75.79-43-45.2-69.32-8.49,7c-5.11-6.39-5.12-9.57-.16-18.05,3.35-5.73,8.19-8.45,14.46-6.9,16.6,4.12,33.13,8.56,49.63,13.06q47.38,12.91,94.71,26c11.38,3.13,22.77,6.22,34.11,9.48,16.61,4.79,21,12,16.62,28.5-8,29.87-16.34,59.64-24.53,89.46-1.45,5.28-2.7,10.64-4.32,15.87-4.59,14.85-12.77,20.07-28,16.56-14.56-3.37-28.87-7.84-43.29-11.84-6.89-1.91-13.76-3.9-20.67-5.75a38,38,0,0,0-5.18-.6c.41,6.7.88,12.79,1.12,18.88.15,3.73,2.83,3,5,3.13,17.59,1.26,35.25,1.84,52.75,3.91,20.28,2.4,40.41,6.11,60.61,9.22,4.93.76,9.86,1.57,14.83,2,3.79.36,6.65-1.53,7-5.4a124.56,124.56,0,0,0,.2-13.94c-.48-28.48-.76-57-1.58-85.44-.6-20.8-.85-41.7-3.21-62.33-2.41-21.14-9.17-41.4-22.85-58.24-9.54-11.73-22.64-17.81-37.89-18.59-24.05-1.22-41.6,9.21-53.27,30-1.06,1.89-2.06,3.81-3.16,5.67-1.84,3.11-4.14,5.64-8,3.29-3.51-2.13-4.62-5.72-2.26-9,5.87-8.2,11.52-16.76,18.55-23.9,12.93-13.15,29.82-17.15,47.73-18.63,22.22-1.83,44.38-4.51,66.57-6.71,21-2.09,42.08-4,63.12-6.06,22-2.15,44-4.73,66-6.43,15.56-1.2,31.3-2.62,46.75,1.23,24.16,6,44.06,18.52,57.77,39.71,10.76,16.64,16.24,35.13,18.44,54.77,4.54,40.43,5.79,81,6,121.67a62.63,62.63,0,0,1-2.1,15.25,14,14,0,0,1-10.82,10.7q-30.57,7.18-61.2,14.15c-14.43,3.31-28.89,6.48-43.3,9.87-6.28,1.48-12.44,3.46-18.71,5-13.29,3.28-19.95,11.74-20.25,25.34,0,1.33-.27,2.65-.43,4A11.1,11.1,0,0,1,1353.79,624.67ZM1044.91,390.59c1.47,2.59,2,3.75,2.75,4.83q22.24,33.75,44.54,67.47c4.51,6.78,9.28,13.39,14.14,19.92,4.69,6.3,8.57,7.41,15.53,4.27,8.79-4,17.46-8.21,26.12-12.47,16.69-8.2,33.34-16.51,50-24.75,6.84-3.38,13.7-6.72,21.9-10.73Zm139.57,177.88.46-1.18c-15.06-25.38-30.11-50.77-44.94-75.77-6.12,2.41-11.67,4.63-17.25,6.78-9.48,3.67-17.4.42-24.11-6.16A59.24,59.24,0,0,1,1090.3,481c-3.35-5.41-3.12-5.46-8.82-2.17q-19.65,11.32-39.38,22.53Q1026.59,510.19,1011,519c0,.48,0,1,0,1.45Zm9.91-7.27,1.69-.46c10.37-37.32,20.74-74.64,31.42-113.06l-77.33,38.25Z" transform="translate(-488 -277)"/><path d="M529.15,306.94c4.14,4.32,8.32,8.05,11.75,12.37,22.73,28.63,46.64,56.28,76.32,77.85,20.66,15,42.88,27.9,64.46,41.64,3.87,2.47,8,4.45,13.19,7.28a47.65,47.65,0,0,0-.62-6.23c-6.24-24.19-12.17-48.51-13-73.56-.53-15.58.46-31.25,1.56-46.83.67-9.58,2.74-19.07,4.34-28.58a27.63,27.63,0,0,1,2.31-7.58c2.84-5.75,6.41-6.07,9.69-.46,4.62,7.88,8.89,16,12.7,24.29,23,50.18,56.74,92.09,98.54,127.8,6.83,5.84,13.22,12.18,19.85,18.25,1.32,1.21,2.78,2.28,4.35,3.56,10.43-10,17.68-21.77,24.14-34.26,8.16-15.76,15.52-32.08,27.74-45.39,20.12-21.91,51.91-27.93,77.41-14.17a41.55,41.55,0,0,1,13.29,11c11.17,14.86,25.17,25.87,41.77,34a49.19,49.19,0,0,1,18.82,15.46c-4.78.77-8.77,1.71-12.81,2-13.58,1-26.11,4.74-37,13.28-8.7,6.83-15,15.66-17.22,26.21-3.62,17-6.12,34.35-8.44,51.63-3.64,27-4.65,54.5-14.24,80.37-4.54,12.22-10.49,23.91-15.76,35.75l-10.95-4c2.57-5.08,5.2-10.38,7.92-15.62,10.83-20.89,14.79-43.52,17.67-66.58,3.33-26.73,6.79-53.48,11.72-79.94,4.27-22.89,19.58-37.53,40.61-46.51,2.9-1.24,5.73-2.63,8.59-4,.13-.06.19-.26.63-.86l-7.65-2.83c-10.16-3.71-15.72-12.46-22.1-20.27-6.79-8.29-14-16-23.94-20.67-15.79-7.37-31-5-46,2.48-13.75,6.82-21.12,19.34-28.48,31.81-11.15,18.91-22,38-33.18,56.88-2.65,4.48-2.16,8.08.57,12.4C871.15,512,878.43,551.27,861,592.68c-11.33,26.92-32,44.46-59.48,54.93a110,110,0,0,0-29.93,17.53c-6.84,5.62-10.9,14.55-16.48,21.78-6,7.75-12.09,15.43-18.6,22.73-2.15,2.42-5.12,5.51-9.94,3A333.83,333.83,0,0,0,773,654.93c-6.54-.63-12.42-1.06-18.27-1.77-33.26-4.06-62.27-18.17-88.91-37.82-2.49-6.77-8.23-8.7-14.34-11.44-5.77-2.59-10-8.53-15-13a274.92,274.92,0,0,1-39.91-45.79c-15.75-22.4-29.28-46.14-38.89-71.77-7-18.62-12.5-37.83-18.11-56.94-8.83-30-11.48-61.06-13.56-92.12C525.73,318.88,524.38,313,529.15,306.94ZM537.71,334c0,2.5-.13,3.91,0,5.29.72,6.28,1.16,12.62,2.37,18.81,4.67,24,8.35,48.23,14.76,71.75a351.35,351.35,0,0,0,35.22,83.37c17.92,31,39.87,58.47,67.61,81.23,16.66,13.67,34.42,25.52,53.95,34.77,18.05,8.55,36.92,13.2,56.86,13.18,8.38,0,11.53-3.21,12.24-11.8.59-7.13,1-14.29,1.08-21.44q.72-46.56-33.65-78.1c-17.67-16.16-31.74-35.15-41.07-57.15-4-9.4-10.56-14.93-18.83-19.52-12.93-7.17-25.93-14.21-38.68-21.68A362.1,362.1,0,0,1,559,358.26C552.2,350.44,545.31,342.66,537.71,334ZM716.83,468.22c1.65,3.73,2.54,6,3.65,8.23,10.93,21.76,27.2,39.32,44.38,56.12,12.66,12.39,19.83,27.76,24.43,44.48,5.08,18.44,5,37.16,2.11,56a45.69,45.69,0,0,0,0,6c4.29-1.53,7.84-2.63,11.27-4,28-11.57,45.33-32.52,52.88-61.45,5.75-22,4.73-44-3.63-65.2-4-10.3-9.74-20-15.19-29.66-1.38-2.46-3.7-5.92-8-3.46-18.29,10.39-38.1,11.88-58.12,7.95-14.29-2.8-28.16-7.73-42.22-11.7C725,470.49,721.71,469.58,716.83,468.22Zm109.6-4.8a61.19,61.19,0,0,1-6.1-4.3c-13.91-12.86-27.89-25.67-41.6-38.75-18.11-17.29-33.69-36.73-48-57.25-13.19-18.94-23.31-39.48-32.35-60.62a21.07,21.07,0,0,0-2.16-3.25,159.81,159.81,0,0,0-3.89,26.06c-2.94,40.34,2.87,79.61,14.69,118.15,2,6.43,5.73,10.59,12.18,12.66,10.12,3.23,20,7.12,30.23,10.09,14,4.09,27.94,8.92,43,7.62C803.76,472.86,814.82,471.1,826.43,463.42Z" transform="translate(-488 -277)"/><path d="M752.56,727.28c8.83-18.19,17.31-35.68,25.79-53.17l-2.08-1.27c-2,2.76-4.17,5.45-6.09,8.29-9.23,13.65-18.62,27.2-30.92,38.33a49.27,49.27,0,0,1-11.19,7.37c-10.77,5.34-21.31-1.7-20.31-13.67.88-10.48,7.07-18.47,13.81-25.94,2.76-3.07,6.06-5.65,9.11-8.44l-.69-1.64c-4.84,0-9.72-.31-14.5.19-1.46.15-2.83,2.45-4,3.95-9.11,11.63-17.8,23.62-27.4,34.84-3.76,4.38-9.18,7.7-14.42,10.38-10.93,5.58-17.95,1-18.11-11.07V713.1c-4.59,3.81-8.81,7.68-13.41,11a25.77,25.77,0,0,1-8.53,4c-9.71,2.49-18.24-5.74-16.42-16.76C617,688.49,629.41,671.89,651,663a21.36,21.36,0,0,1,12.22-.77c3,.7,5.45,4,8,6,1.76-1.2,4.25-3.64,7.22-4.7s6.7-.89,11.32-1.38c-3.94,7.54-7.26,13.77-10.47,20.06-4.15,8.14-8.58,16.17-12.11,24.57-1.32,3.13-2,9-.27,10.42,3.23,2.74,7.51-.1,10.57-2.84,12.48-11.22,22.36-24.54,31.26-38.47-8.32-11.33.78-21.92,9.91-24.77,4.38-1.37,7.58,2.62,5.86,7.4-1.33,3.7-3.48,7.1-5.27,10.65,6.13,1.28,8.49.82,22.79-4.47,4.93,5.55,4.94,6.65-.57,13.22-7,8.33-13.39,17-16.88,27.44-1.31,3.95-3.43,8.56.65,11.49,4.35,3.12,8.59-.09,11.41-3.3,8.74-10,17.13-20.27,25.5-30.57,4-4.9,7.45-10.21,11.45-15.09a16.16,16.16,0,0,1,5.89-4.39c6.94-3,12.33,1.11,11.15,8.51-.67,4.17-2.05,8.24-3.22,12.77,3.31-3.71,6.31-7.34,9.59-10.7,5.52-5.67,11.73-10.53,19.66-12.11,10.14-2,15.28,3.56,13,13.72-.38,1.73-1,3.4-1.81,6.18,3.85-4.09,6.45-8,10-10.42,5.54-3.76,11.42-7.74,17.75-9.47,9.75-2.66,15.73,3.76,12.42,13.26C865,684.41,860,693,855.84,701.81c-1.35,2.83-3.21,5.54-3.93,8.52-.56,2.31.3,4.95.54,7.45,2.51-.26,5.55.28,7.42-.95a72.09,72.09,0,0,0,11.34-9.62c11.41-11.58,20.18-25.09,28.08-39.22,2.38-4.24,12.41-6.72,17.37-4.38-5.17,9.43-10.49,18.75-15.41,28.28a155.78,155.78,0,0,0-8,18.19c-.78,2.13.29,4.93.51,7.43,2.4-.23,5.26.28,7.1-.85,3.78-2.33,7.63-5,10.35-8.48,9.09-11.43,17.75-23.22,26.44-35,1.15-1.55,1.63-3.62,2.26-5.5,1.26-3.81,3.66-5.84,7.82-5.35,4.47.53,6.67,3.48,6.28,7.52-.45,4.68-1.94,9.26-3,13.88l-1.51-1.32c4.67-4,9-8.45,14.09-11.77,5.59-3.65,11.59-7.38,17.93-9,7.77-2,12.78,3.25,11.43,11.18a56.79,56.79,0,0,1-5.28,14.89c-3.47,7.16-7.68,14-11.37,21-1.42,2.73-3.53,6.62,0,8.39,2.23,1.1,6.6,0,8.94-1.58,12.42-8.66,20-21.61,28.88-33.45,8-10.69,18.11-18.71,31.89-20.26,8-.9,10.22.9,13.32,8.63,2.72-9.78,10.92-6.89,18.72-8.86l-31,60.76c16.22-8.93,28.41-20.53,38.68-34.46,2.4,4,2.34,4.62-.13,8a101.49,101.49,0,0,1-34.73,30.17c-5.74,3.08-9.22,7.45-11.89,13.29-6.38,14-13.89,27.3-25.43,37.87-6.55,6-13.66,10.54-23.1,10-10.43-.59-15.34-8-11.77-18,2.64-7.38,7.69-13,13.89-17.25,9.58-6.55,19.29-13.15,29.69-18.18,7.65-3.71,10.48-9.82,14-17.61-3.85,3.14-6.61,5.71-9.7,7.81a26.12,26.12,0,0,1-7.57,3.66c-10,2.78-16.74-2.23-17.28-12.68-.1-2,0-4,0-7.37-1.86,2.16-2.86,3.79-4.27,4.88-6.39,5-12.59,10.26-19.46,14.44-4.94,3-10.89,2.73-15.21-1.77s-4.59-10.08-2.07-15.37c4.14-8.69,8.91-17.07,13.32-25.63a30,30,0,0,0,3-7.3c1-4.44-1.95-6.88-5.7-4.41-4.92,3.25-10.08,6.93-13.41,11.65-8.62,12.17-16.53,24.87-24.19,37.68-2.22,3.72-4,6-8.64,5.39-3-.42-6.15-.08-10-.08,3.71-7.43,6.87-14,10.21-20.38,3.25-6.27,6.68-12.45,9.4-18.92-6.74,8.36-13,17.21-20.37,24.91-5.31,5.5-12,9.75-18.52,14a11.77,11.77,0,0,1-14.09-.31c-4.36-3.24-3.86-8.15-3.71-12.8a50.06,50.06,0,0,1,1-6.06c-5.18,4.9-9.58,9.36-14.3,13.45-5.25,4.57-11.1,8-18.51,7.28-5.87-.55-8.7-2.91-10-8.69s.31-11.2,3.13-16.28q5.94-10.68,11.89-21.35a6.6,6.6,0,0,0,1.17-2.72c0-2.19.44-5.19-.75-6.32s-4.9-.9-6.13.22c-6.43,5.92-13.4,11.63-18.32,18.7-6.79,9.77-12.13,20.59-17.63,31.2-1.6,3.08-3.28,4.1-6.46,3.92-3.48-.21-7,0-11.34,0,.92-2.41,1.49-4.38,2.39-6.19,6-12,12.08-24,18.13-36.07a5.83,5.83,0,0,0,.92-2.3c0-3.28-.2-6.56-.32-9.84-3.16.91-7.41.84-9.29,2.91a278.1,278.1,0,0,0-21.37,26.12c-5,7-8.43,15-12.88,22.44a7.55,7.55,0,0,1-4.91,3.08C760.83,727.61,757,727.28,752.56,727.28ZM627.88,710.45c1,1.67,2,5.2,4.09,6.1s5.46-.58,8.22-1.2a5,5,0,0,0,2-1.49c10.11-9.93,17.53-21.64,23.07-34.63,1.48-3.47,2.42-7.67-.8-9.51-2.56-1.47-7.41-1.41-10,.09C639.22,678.44,631.56,692.38,627.88,710.45Zm388.15-.12c1.08,1.69,2.24,5.64,4.19,6.08,2.92.65,7.47-.1,9.43-2.11A123,123,0,0,0,1045.26,695a80,80,0,0,0,8.57-18.92c1.82-5.77-2.55-9.33-8.36-7.58a15.45,15.45,0,0,0-4.1,1.78C1027.42,679.58,1020,693.08,1016,710.33Zm8.6,29.74-1.07-1.32c-6.4,4-13,7.72-19.13,12.12-7.19,5.18-13.81,11.2-16.57,20-.76,2.42-.41,6.69,1.16,7.92s5.38.09,8.16-.29c.86-.12,1.64-1.07,2.39-1.73C1011.07,766.64,1017.49,753.11,1024.63,740.07Z" transform="translate(-488 -277)"/><path d="M1179.79,717c8.49,2,16.73,4.63,25.16,5.78,9.22,1.25,16.08-4,21.56-11.28l1.65.7c-.12,1.69.26,3.62-.43,5-7.64,15.54-24.44,21.94-40.92,15.55a108.82,108.82,0,0,1-14.44-6.72c-2.82-1.61-4.69-1.08-7.18.45-10.8,6.63-22.34,10.37-35.17,7.75-6.08-1.25-11.54-3.71-13.44-10.37-2.16-7.56,2.87-14.44,12.25-17.67,11.4-3.93,22.37-1.61,33.17,2.11,7.13,2.45,7,2.76,11-3.65,5-8.18,10-16.38,15.42-25.33-16.24-1.49-30-5.95-33.3-23.19-2.11-10.92,3.51-19.44,12.77-25,7.32-4.4,15.2-7.61,23.9-5.61l.66,2.11a29.78,29.78,0,0,1-4.7,2c-9.87,2.33-17.55,7.34-20.47,17.54-3.5,12.24,4.19,23.63,17,25.62,2,.31,3.92.58,6,.9,5.34-9.79,10.61-19.76,16.17-29.55s12.61-18.86,21.68-25.87c7.48-5.77,15.72-9.38,25.62-9.51,10.72-.13,16.32,9.41,15.42,17.88a39.78,39.78,0,0,1-9.8,22.56c-13.87,15.57-30.57,26.45-51.79,29.22a5.16,5.16,0,0,0-3.51,2.17c-6.5,12.22-13.89,23.81-23.46,33.91C1180.29,714.75,1180.29,715.32,1179.79,717Zm28-45.83,1.45,1.15a33.75,33.75,0,0,0,4.3-.87c13.81-4.68,26-12.08,34.68-23.86a78.19,78.19,0,0,0,11.24-20.72c2.9-8.51-3.22-14-11.56-10.72-4.85,1.93-10.14,5.26-12.89,9.48C1225.36,640.41,1216.75,655.9,1207.76,671.13Zm-47.71,48.17c-10-3.71-18.69-8-28.72-6.24-4,.73-8,2.35-8.12,7.24s3.5,6.67,7.66,7.69C1141.75,730.67,1150.49,726.06,1160.05,719.3Z" transform="translate(-488 -277)"/><path d="M564.2,682.37c-5.3,2.12-10.6,4.21-15.87,6.38-1.38.57-2.58,1.64-4,2a3.33,3.33,0,0,1-2.94-.67,3,3,0,0,1,.52-2.91c3.68-2.52,7.5-4.84,11.35-7.11a9.19,9.19,0,0,1,3.75-1.3c10.55-.79,15.88-7.78,20.69-16.18a74.07,74.07,0,0,1,23.77-25.2c3.49-2.3,7.89-3.26,11.94-4.64.64-.22,1.64.59,2.47.93-.43.92-.62,2.32-1.33,2.68-9.18,4.68-13.43,13.58-18.51,21.68-3.25,5.16-5.94,10.67-9.3,16.8,4.58,0,8.51.27,12.37-.13,1.54-.16,3-1.73,4.39-2.72,2.83-2,5.43-4.49,8.54-5.7,1.58-.62,4.91.55,5.92,2s.23,4.21-.42,6.2a5.39,5.39,0,0,1-3.14,3c-10.35,3-12,11.83-14.22,20.43-.41,1.57-1.84,2.87-2.81,4.29-.9-1.67-2.69-3.42-2.53-5,.52-5.22,1.73-10.37,2.82-16.28a105.36,105.36,0,0,0-11.64.15c-1.38.15-2.9,1.8-3.78,3.15-6.25,9.6-11.62,19.87-18.68,28.81-10,12.66-22.74,21.9-39.3,24.4A40.45,40.45,0,0,1,500.42,734c-12.1-5.77-15.7-23.72-6.22-32.53,2.28-2.11,6.08-3.19,9.31-3.54,3.82-.41,6.62,1.88,7.27,6s-1.27,6.47-5.18,7.82c-7.93,2.75-8.88,8.73-2.44,14.35,6.95,6,19.48,6.52,28.07,1.24,9.36-5.75,15.66-14.32,21.51-23.24,4.35-6.64,8.2-13.63,12.27-20.46Z" transform="translate(-488 -277)"/><path d="M659.35,609.51c-.43,2-.36,4.28-1.4,5.86C652.9,623.14,645.21,627,636.31,628c-13,1.55-25.85.27-38.72-2.09-15.73-2.88-31.59-5-47.54-1.31-11.26,2.57-21.53,7.08-28.51,16.73a26.11,26.11,0,0,0-4.33,10.45c-2.23,12.65,8.29,21.06,21.6,17.6,12.59-3.26,20.41-11.82,26-23,.68-1.37,2.2-2.32,3.33-3.46.38,1.72,1.43,3.6,1,5.13A40.91,40.91,0,0,1,530,678.45c-14.64,0-24.22-11.2-21.88-25.68,2.27-14,11.28-23.09,23-29.55,18.39-10.12,38.42-12.41,59-10.77,13.41,1.07,26.78,2.77,40.19,3.85,9.85.79,19.82,1.28,27.21-7.64Z" transform="translate(-488 -277)"/><path d="M1341.28,729.66c2.52.77,5.34,1.27,7.75,2.53a5.48,5.48,0,0,1,2.25,4.07c.41,14.8.49,29.61.9,44.41.7,25.27,1.65,50.53,2.33,75.8.27,9.65.12,19.3.12,28.95,0,1.66.29,3.63-.47,4.91-1.49,2.5-3.43,6.29-5.54,6.54-4.1.47-3.63-3.91-3.73-6.69-1.26-35.74-2.61-71.47-3.53-107.22C1340.9,765.2,1341.28,747.41,1341.28,729.66Z" transform="translate(-488 -277)"/><path d="M907.78,646.94l6.88,7.55c-1.84,3.55-4.92,5-8.82,5.1s-7.28,1.35-8.82,5.29c-3.89,10-11.42,16.4-20.42,21.56-3.79,2.17-7.28,4.88-11.15,7.52,2.26-6.37,4.29-12.26,6.46-18.1a5.73,5.73,0,0,1,1.9-2.24Q890.76,660.26,907.78,646.94Z" transform="translate(-488 -277)"/><path d="M929.22,640.31a10.22,10.22,0,0,1-11,10.25c-4.73-.22-7.68-3.16-7.54-7.48.17-5.39,5.49-10.33,11-10.19C926.15,633,929.34,636.12,929.22,640.31Z" transform="translate(-488 -277)"/><path d="M837.87,697.24c-1.81,5.1-3.51,10-5.35,14.93a4.63,4.63,0,0,1-1.84,2.25c-5.65,3.34-11.36,6.56-17.46,10.06C816.9,710.77,825.41,702.28,837.87,697.24Z" transform="translate(-488 -277)"/><path d="M1345.51,649.64l7.82-13.34C1355.07,646.78,1353.12,650.21,1345.51,649.64Z" transform="translate(-488 -277)"/><path class="cls-1" d="M1364.24,659.08c-11,19.6-20.18,39.23-37,53.56a29.16,29.16,0,0,1-9.45,5.07c-3.6,1.22-6-.84-5.7-4.62.22-3.42.48-7.15,2-10.12,6.92-14,14.23-27.75,21.55-41.52a4.76,4.76,0,0,1,3.37-2.27C1347,659,1355.16,659.08,1364.24,659.08Zm-12.49,3.19c-2.41,0-4.57.31-6.59-.07-3.49-.66-4.46.77-4.37,4,.15,5.13.07,10.27.08,15.41,0,3.15,0,6.3,0,10.69C1348.45,682.89,1353.51,674.2,1351.75,662.27Z" transform="translate(-488 -277)"/><path class="cls-1" d="M1256.64,695.85c4.7-11.38,9.51-20.93,19.59-26.32,2.15-1.14,5.23-.55,7.89-.76,0,2.82.89,6.14-.26,8.39C1278.5,687.63,1268.91,692.42,1256.64,695.85Z" transform="translate(-488 -277)"/><path class="cls-1" d="M1400.9,694.35c4.25-9.68,9-19.11,18.78-24.53,2.07-1.15,5.13-.5,7.74-.68-.08,2.68.92,6.23-.42,7.87a89.41,89.41,0,0,1-13.92,13.72c-3.09,2.42-7.38,3.3-11.13,4.86Z" transform="translate(-488 -277)"/><path class="cls-1" d="M1044.91,390.59l175,48.54c-8.2,4-15.06,7.35-21.9,10.73-16.68,8.24-33.33,16.55-50,24.75-8.66,4.26-17.33,8.5-26.12,12.47-7,3.14-10.84,2-15.53-4.27-4.86-6.53-9.63-13.14-14.14-19.92q-22.38-33.66-44.54-67.47C1047,394.34,1046.38,393.18,1044.91,390.59Z" transform="translate(-488 -277)"/><path class="cls-1" d="M1184.48,568.47l-173.46-48c0-.48,0-1,0-1.45q15.53-8.82,31.06-17.64,19.71-11.23,39.38-22.53c5.7-3.29,5.47-3.24,8.82,2.17a59.24,59.24,0,0,0,8.34,11.16c6.71,6.58,14.63,9.83,24.11,6.16,5.58-2.15,11.13-4.37,17.25-6.78,14.83,25,29.88,50.39,44.94,75.77Z" transform="translate(-488 -277)"/><path class="cls-1" d="M1194.39,561.2l-44.22-75.27,77.33-38.25c-10.68,38.42-21,75.74-31.42,113.06Z" transform="translate(-488 -277)"/><path class="cls-1" d="M537.71,334c7.6,8.63,14.49,16.41,21.33,24.23a362.1,362.1,0,0,0,90.56,74.48c12.75,7.47,25.75,14.51,38.68,21.68,8.27,4.59,14.85,10.12,18.83,19.52,9.33,22,23.4,41,41.07,57.15q34.44,31.53,33.65,78.1c-.11,7.15-.49,14.31-1.08,21.44-.71,8.59-3.86,11.79-12.24,11.8-19.94,0-38.81-4.63-56.86-13.18-19.53-9.25-37.29-21.1-53.95-34.77C630,571.72,608,544.28,590.09,513.25a351.35,351.35,0,0,1-35.22-83.37c-6.41-23.52-10.09-47.78-14.76-71.75-1.21-6.19-1.65-12.53-2.37-18.81C537.58,337.94,537.71,336.53,537.71,334Z" transform="translate(-488 -277)"/><path class="cls-1" d="M716.83,468.22c4.88,1.36,8.2,2.27,11.5,3.21,14.06,4,27.93,8.9,42.22,11.7,20,3.93,39.83,2.44,58.12-7.95,4.33-2.46,6.65,1,8,3.46,5.45,9.68,11.14,19.36,15.19,29.66,8.36,21.17,9.38,43.23,3.63,65.2C848,602.43,830.61,623.38,802.64,635c-3.43,1.41-7,2.51-11.27,4a45.69,45.69,0,0,1,0-6c2.92-18.79,3-37.51-2.11-56-4.6-16.72-11.77-32.09-24.43-44.48-17.18-16.8-33.45-34.36-44.38-56.12C719.37,474.25,718.48,472,716.83,468.22Z" transform="translate(-488 -277)"/><path class="cls-1" d="M826.43,463.42c-11.61,7.68-22.67,9.44-34,10.41-15,1.3-29-3.53-43-7.62-10.19-3-20.11-6.86-30.23-10.09-6.45-2.07-10.2-6.23-12.18-12.66-11.82-38.54-17.63-77.81-14.69-118.15a159.81,159.81,0,0,1,3.89-26.06,21.07,21.07,0,0,1,2.16,3.25c9,21.14,19.16,41.68,32.35,60.62,14.3,20.52,29.88,40,48,57.25,13.71,13.08,27.69,25.89,41.6,38.75A61.19,61.19,0,0,0,826.43,463.42Z" transform="translate(-488 -277)"/><path class="cls-1" d="M627.88,710.45c3.68-18.07,11.34-32,26.51-40.64,2.63-1.5,7.48-1.56,10-.09,3.22,1.84,2.28,6,.8,9.51-5.54,13-13,24.7-23.07,34.63a5,5,0,0,1-2,1.49c-2.76.62-6.05,2.14-8.22,1.2S628.91,712.12,627.88,710.45Z" transform="translate(-488 -277)"/><path class="cls-1" d="M1016,710.33c4-17.25,11.39-30.75,25.34-40a15.45,15.45,0,0,1,4.1-1.78c5.81-1.75,10.18,1.81,8.36,7.58a80,80,0,0,1-8.57,18.92,123,123,0,0,1-15.61,19.29c-2,2-6.51,2.76-9.43,2.11C1018.27,716,1017.11,712,1016,710.33Z" transform="translate(-488 -277)"/><path class="cls-1" d="M1024.63,740.07c-7.14,13-13.56,26.57-25.06,36.69-.75.66-1.53,1.61-2.39,1.73-2.78.38-6.52,1.59-8.16.29s-1.92-5.5-1.16-7.92c2.76-8.79,9.38-14.81,16.57-20,6.12-4.4,12.73-8.11,19.13-12.12Z" transform="translate(-488 -277)"/><path class="cls-1" d="M1207.76,671.13c9-15.23,17.6-30.72,27.22-45.54,2.75-4.22,8-7.55,12.89-9.48,8.34-3.32,14.46,2.21,11.56,10.72a78.19,78.19,0,0,1-11.24,20.72c-8.71,11.78-20.87,19.18-34.68,23.86a33.75,33.75,0,0,1-4.3.87Z" transform="translate(-488 -277)"/><path class="cls-1" d="M1160.05,719.3c-9.56,6.76-18.3,11.37-29.18,8.69-4.16-1-7.77-2.87-7.66-7.69s4.08-6.51,8.12-7.24C1141.36,711.25,1150.05,715.59,1160.05,719.3Z" transform="translate(-488 -277)"/><path d="M1351.75,662.27c1.76,11.93-3.3,20.62-10.88,30,0-4.39,0-7.54,0-10.69,0-5.14.07-10.28-.08-15.41-.09-3.2.88-4.63,4.37-4C1347.18,662.58,1349.34,662.27,1351.75,662.27Z" transform="translate(-488 -277)"/></svg>