<?xml version="1.0" encoding="utf-8"?>
<!-- Generator: Adobe Illustrator 24.0.1, SVG Export Plug-In . SVG Version: 6.00 Build 0)  -->
<svg version="1.1" id="Layer_1_Image" xmlns="http://www.w3.org/2000/svg" xmlns:xlink="http://www.w3.org/1999/xlink" x="0px"
	 y="0px" viewBox="0 0 153.8 131.1" style="enable-background:new 0 0 153.8 131.1;" xml:space="preserve">
<title>logo_transparent-B</title>
<path d="M153.8,117.6c-2.9,0-3.7,0.8-3.8,3.7c0,1.5,0,3,0.1,4.5c0,0.8-0.2,1.1-1,1c-0.6-0.1-1.2-0.1-1.8-0.1V115h2.5l0.2,1.2
	c1.2-0.9,2.4-1.7,3.9-1.3L153.8,117.6z"/>
<path d="M32.9,126.7v-11.8l2.6,0.1l0.1,1c2.7-1.7,5-1.4,6.5,0.1c1.4-0.5,2.8-0.9,4.3-1.1c2.1-0.3,4,1.2,4.3,3.3c0,0.2,0,0.3,0,0.5
	c0.2,2.6,0,5.2,0,7.9h-2.8c0-1.2,0-2.4,0-3.7s0-2.4-0.1-3.6c0-1.1-0.9-2-2-2c-0.1,0-0.2,0-0.3,0c-1.1-0.1-2.1,0.8-2.1,1.9
	c0,0,0,0.1,0,0.1c-0.1,1.7-0.1,3.4-0.2,5c0,0.7,0,1.4,0,2.2h-2.9v-4.8c0-0.8,0-1.5,0-2.3c-0.1-1.4-0.8-2.1-2.1-2.1
	c-1.3-0.1-2.3,0.9-2.4,2.2c0,0,0,0,0,0c-0.1,1.9-0.1,3.9-0.2,5.9c0,0.4,0,0.8-0.1,1.2L32.9,126.7z"/>
<path d="M73.6,127.6c1.3,0.4,2.7,0.7,4.1,1c2.2,0.3,3.5-1,3.3-3.5c-1.3,1-3.1,1.4-4.7,1c-1.4-0.4-2.6-1.2-3.3-2.4
	c-1.5-2.3-1.2-5.3,0.6-7.3c2-2,4.8-2.2,7.5-0.4l0.2-1.1h2.6c0,1.4,0,2.8,0,4.1c0,2,0.1,4,0.1,6c0,3.2-1.8,6.2-5.9,5.9
	c-1.4-0.1-2.7-0.4-4.1-0.8c-1.4-0.5-1.4-0.9-0.7-2.1C73.4,127.9,73.6,127.6,73.6,127.6z M81.1,120.6c0-2.1-1.1-3.3-3-3.3
	c-1.7,0-3.1,1.3-3.2,3c0,0.1,0,0.2,0,0.3c-0.1,1.7,1.2,3.2,2.9,3.3c0.1,0,0.2,0,0.3,0c1.7,0,3-1.4,3-3
	C81.1,120.7,81.1,120.7,81.1,120.6L81.1,120.6z"/>
<path d="M145,121.7h-8.3c0.5,2.8,3.4,3.4,6.2,1.4l1.5,1.6c-2,2.3-5.3,2.8-7.9,1.2c-2.6-1.6-3.6-4.9-2.4-7.7c1.2-2.6,4-4,6.8-3.4
	C143.7,115.6,145.4,118.2,145,121.7z M142.2,119.7c-0.1-1.4-1.3-2.5-2.7-2.5c-1.4-0.1-2.7,1-2.8,2.4c0,0,0,0,0,0.1H142.2z"/>
<path d="M115.2,121.7h-8.5c0.8,2.9,3.6,3.5,6.3,1.5c0.1,0,0.2,0,0.2,0.1c1.7,1.8,1.6,2.1-0.6,3c-2.7,1.2-5.9,0.4-7.7-2
	c-1.7-2.5-1.4-6,0.8-8.1c1.5-1.5,3.8-2,5.8-1.1c2,0.5,3.5,2.3,3.6,4.4C115.1,120.2,115.2,120.9,115.2,121.7z M106.8,119.7h5.6
	c0-1.4-1.1-2.5-2.4-2.6c0,0,0,0,0,0C108.3,117,106.9,118.1,106.8,119.7C106.8,119.7,106.8,119.7,106.8,119.7z"/>
<path d="M10.3,113.8H2.9v3.6c0,0.8,0.6,0.7,1.1,0.7h5.6v2.5c-1.9,0-3.7,0-5.6,0c-1,0-1.3,0.3-1.2,1.2c0.1,1.6,0,3.1,0,4.7H0v-15.2
	h10.3L10.3,113.8z"/>
<path d="M18.8,119.7c-0.2-2.7-2.3-3.2-5.9-1.5l-1-1.7c1.2-1.4,4.6-2.2,6.7-1.5c1.9,0.6,2.9,2.1,3,4.6s0,4.7,0,7
	c-2.2,0.3-2.4,0.3-2.6-0.9c-1.4,1.2-3.4,1.6-5.2,0.9c-1.5-0.4-2.5-1.9-2.3-3.5c0-1.5,1.1-2.9,2.6-3.1c0.7-0.1,1.5-0.2,2.3-0.2
	C17.2,119.7,18,119.7,18.8,119.7z M18.8,121.7c-1-0.1-2.1-0.1-3.1,0c-0.6,0.1-1.1,0.6-1.3,1.2c0.1,0.6,0.4,1.2,1,1.5
	C17.2,125.3,19,124,18.8,121.7L18.8,121.7z"/>
<path d="M59.3,114.9h2.4l0.2,1c1-0.5,2-0.8,3.1-1.1c2.2-0.5,4.4,0.9,4.9,3.1c0,0.2,0.1,0.4,0.1,0.6c0.3,2.7,0.1,5.4,0.1,8.1h-2.8
	c0-2.3,0-4.5,0-6.8c0.2-1.3-0.7-2.4-2-2.6c-0.3,0-0.7,0-1,0.1c-1.3,0.3-2.2,1.5-2.1,2.8c0,1.8,0,3.5,0,5.3c0,0.4,0,0.8-0.1,1.2h-2.8
	L59.3,114.9z"/>
<path d="M95.5,111.4v12.6h7.2c0.1,0.2,0.1,0.3,0.2,0.5c0.2,2,0.2,2-1.9,2h-8.3v-15.2H95.5z"/>
<path d="M126.5,117.4l-1.9-0.2v-2.2l1.7-0.2c0.1-0.9-0.1-2,0.4-2.5s1.6-0.2,2.5-0.2v2.8h3v2.3l-2.9,0.1c0,2,0,4,0,5.9
	c0,0.6,0.5,1.1,1.1,1.1c0.1,0,0.2,0,0.3,0c0.5-0.1,1-0.2,1.4-0.4c0.1,0,0.1,0.1,0.1,0.1c1.1,2.1,0.7,2.8-1.7,2.8
	c-2.6,0.1-4-1.1-4.1-3.7C126.4,121.3,126.5,119.4,126.5,117.4z"/>
<path d="M123.6,123.9c1.2,2.5,0.6,2.7-1.7,2.9c-2.7,0.1-4.1-1.4-4.1-4.1c0-1.4,0-2.7,0-4.1c0-0.4,0-0.7-0.1-1.1l-1.6-0.2v-2.3
	l1.7-0.1v-2.6c2.8-0.5,2.8-0.5,2.8,2.6h2.8v2.4h-2.8c0,2.1-0.1,4.1,0,6c0,0.8,0.7,1.1,1.5,1C122.6,124.2,123.1,124.1,123.6,123.9z"
	/>
<path d="M27.4,126.6h-2.8V115h2.5l0.1,0.9l3.8-1.3v2.9l-0.6,0.1c-2.1,0.2-3,1-3,3.2C27.4,122.7,27.4,124.6,27.4,126.6z"/>
<path d="M53.6,115.1h2.7v11.6h-2.7V115.1z"/>
<path d="M91.5,96.1c-0.3-0.3-0.8-0.6-0.9-1c-0.1-0.5,0.1-0.9,0.5-1.3c1.8-1.3,3.7-2.5,5.5-3.8c0.7-0.5,1.4-1,2-1.4s1.4-0.5,1.9,0.2
	c0.4,0.5,0.3,1.3-0.3,1.7c0,0-0.1,0.1-0.1,0.1c-2.6,1.8-5.1,3.5-7.7,5.2C92.2,95.9,91.9,96,91.5,96.1z"/>
<path d="M100.6,90.5c-0.2,0.4-0.5,0.7-0.9,1.1c-2.5,1.7-5.1,3.3-7.6,5c-0.7,0.4-1.4,0.6-1.9-0.2s-0.1-1.4,0.6-1.8
	c2.5-1.7,5-3.4,7.6-5c0.4-0.2,1-0.2,1.4-0.1C100.1,89.6,100.3,90.1,100.6,90.5z"/>
<path d="M83.6,97.1c-0.5-0.4-1-0.6-1.1-1s-0.1-1,0.1-1.2c1.3-1,2.6-1.9,4-2.7c0.2-0.1,1,0.1,1.2,0.4s0.3,1.1,0.1,1.3
	C86.6,95,85.2,96,83.6,97.1z"/>
<path d="M81.4,98.1c-0.1,0.1-0.1,0.5-0.4,0.6c-1,0.8-2.2,1.5-3.3,2.1c-0.5,0.1-1.1,0-1.5-0.4c-0.2-0.5-0.1-1.1,0.3-1.5
	c1-0.8,2-1.5,3.2-2.1C80.6,96.4,81.4,96.9,81.4,98.1z"/>
<path d="M85.8,100.9c-1.4-0.1-1.9-1.1-1.2-1.8c0.9-0.8,1.8-1.5,2.9-1.9c0.3-0.2,1.1,0.3,1.4,0.6c0.2,0.2-0.1,1-0.4,1.3
	C87.5,99.7,86.5,100.4,85.8,100.9z"/>
<path d="M54.9,113.5c-1,0-1.8-0.8-1.8-1.8c0,0,0,0,0,0c0.1-1,0.9-1.7,1.9-1.6c0,0,0,0,0,0c0.9-0.1,1.6,0.6,1.7,1.4
	c0,0.1,0,0.2,0,0.3c0,0.9-0.6,1.7-1.5,1.7C55,113.5,55,113.5,54.9,113.5z"/>
<path d="M78.1,95.4c-0.5-0.4-1.1-0.7-1.2-1.1c-0.1-0.5,0.1-0.9,0.4-1.3c0.5-0.5,1-0.9,1.7-1.1c0.5-0.1,1.1,0,1.5,0.4
	c0.2,0.2,0,1.1-0.3,1.4C79.5,94.4,78.8,94.9,78.1,95.4z"/>
<path d="M101.1,44.7c2.8-0.1,5.5-0.8,6.8,2.7c-1.3,0.1-2.8,0.5-3.9,0.1S102.1,45.8,101.1,44.7z"/>
<path d="M134,83.5c-1.7-2.4-3.3-4.9-4.9-7.3c-2.8-4.2-5.5-8.4-8.2-12.6c-0.4-0.6-0.7-0.7-1.3-0.3c-4.2,2.8-8.5,5.6-12.7,8.4
	c-1.2,0.9-2.4,2.2-4.2,1.3c-0.4-0.1-0.8-0.1-1.2,0c-2.3,0.1-4.6,0.2-6.9,0.3c-0.5,0-0.9-0.1-1.4-0.3c0.8-1.3,1.5-2.3,2.2-3.3
	c2.6-3.8,5.3-7.6,8-11.4c0.8-1.3,1.8-2.5,2.9-3.5c1-0.7,2-1.3,3.2-1.7c0.6-0.3,1.3-0.4,2-0.4c2.2,0.1,4.5,0.3,7,0.5
	c-0.5-1.3-1.2-2.7-1.9-3.9c-0.5-0.7-1.1-1.4-1.9-1.8c-1.5-0.9-3.2-1.5-3.9-3.5c-0.3-1.1-1-2-2-2.7c-2.9-1.4-5.8-2.6-9.1-2.5
	c-1.7-0.1-3.5-0.4-5.2-0.8c-1.6-0.3-3.1-0.8-4.6-1.2l-0.2,0.3l3.3,6.1l-7.5,4c-1.3-4.7-2.5-9.2-3.7-13.6c-0.3-1.6-0.9-3.2-1.7-4.7
	c-1.6-2.1-5.2-5.9-5.2-5.9s-6.8-8.1-9.6-10.2c-2.9-2.2-9.4-5.5-12.7-8.1c-0.6-0.6-6.1-4.2-6.1-4.2s1,13.1,1.4,18.1L26.1,5.2
	c0.1,0.6,0.2,1,0.3,1.3c1.1,3.5,2.2,7,3.1,10.5c0.7,2.5,1.6,4.8,3.8,6.5c0.1,0.2,0.2,0.3,0.3,0.5l-11.7-5.8l-0.3,0.4
	c0.4,0.8,1,1.6,1.4,2.4c2.1,4,4.3,7.9,6.4,11.9c0.3,0.6,0.8,1,1.4,1.3c1.5,0.7,3,1.4,4.5,2c1.5,0.5,2.6,1.7,3,3.2
	c0.5,1.6,1.1,3.2,1.8,4.7c0.6,1.3,0.7,2.9,2.6,3.5c1.8,0.6,3.6,1.6,5.3,2.4l5.7,2.6l-0.1,0.3l-7.4-1.2c0.2,0.4,0.5,0.8,0.7,1.1
	c2.4,2.7,4.9,5.5,7.4,8.2c0.6,0.6,1.4,1.1,2.3,1.3c2.8,0.8,5.6,1.4,8.5,2.2c-0.5,0.7-1,1.3-1.4,2c-2.5,3.9-5,7.7-7.5,11.6
	c-0.3,0.4-0.6,0.8-1,1.2c-2,1.5-4.1,3-6.1,4.5c-4.1,3.1-8.2,6.3-12.3,9.4c-3.1,2.3-6.1,4.6-9.2,6.9c-0.3,0.2-0.6,0.5-0.9,0.8
	l0.1,0.3h12.8l-2.1,2.5c3.5-0.3,7-0.9,10.5-1.7c3.7-0.9,7.2-2.3,10.8-3.3c1.1-0.3,2-1.1,2.4-2.2c1.8-3.9,3.5-7.8,5.4-11.6
	c0.3-0.6,0.8-1.1,1.5-1.4c3.5-1.3,7.1-2.3,10.5-3.8c2.2-1,3.6-0.5,4.9,1.3c0.6,0.9,1.7,1.3,2.8,1.1c1.5-0.1,3.1,0,4.9,0l-2,1.8
	l2.6,4.3c-2.7,1.8-5.4,3.5-8.1,5.3c-1,0.7-1.3,1.4-0.8,2.2c0.7,0.9,1.5,0.4,2.2,0.1c0.7-0.4,1.3-0.9,2-1.4c2.4-1.6,4.9-3.2,7.3-4.8
	c0.1,0,0.1-0.1,0.2-0.1c0.4-0.3,0.4-0.9,0.1-1.3c-0.4-0.7-0.9-1.5-1.4-2.4l13.7,2.1c-1.2,4.4-2.4,8.6-3.7,13.1
	c-0.3-0.3-0.5-0.5-0.6-0.7c-0.6-0.7-1-1.9-1.7-2s-1.6,0.7-2.3,1.2c-2.4,1.6-4.8,3.2-7.1,4.7c-0.1,0-0.1,0.1-0.2,0.1
	c-0.6,0.4-0.7,1.2-0.3,1.7c0.5,0.8,1.2,0.6,1.8,0.3c0.6-0.3,1.1-0.7,1.6-1l5.8-4c0.9,1.3,1.7,2.5,2.5,3.7c0.5,0.7,0.8,0.6,1.5,0.2
	c2.5-1.7,5.1-3.3,7.6-5c4.5-3,9.1-6.2,13.6-9.2c2.7-1.8,5.3-3.6,8.1-5.3C134.6,84.9,134.6,84.4,134,83.5z M95.9,64.5
	c-1.8,2.6-3.6,5-5.4,7.6c-0.1,0.2-0.3,0.4-0.5,0.5c-1.9,0.8-3.7,1.5-5.6,2.3l-0.2-0.2c0.7-1.6,1.5-3.3,2.2-4.8
	c0.7-1.6,1.3-3.1,2.1-4.6c0.2-0.4,0.4-0.8,0.8-1.1c3.5-2,7-3.9,10.6-5.8l0.2,0.1L95.9,64.5z M94.6,40.9c1.5,0.2,2.9,0.3,4.4,0.3
	c3-0.2,5.6,1,8.1,2.2c1,0.7,1.7,1.7,2,2.8c0.4,1.4,1.5,2.4,3,2.7c0.8,0.3,1.6,0.7,2.3,1.1l-0.1,0.4c-0.9,0-1.9-0.1-2.8-0.3
	c-1.3-0.2-2.7,0.1-3.8,0.9c-3,1.7-6.1,3.3-9.1,5l-6.4,3.5l-1.3,0.7L96.6,45l2.6-0.3C97.7,43.1,95.4,42.8,94.6,40.9z M88,48.7
	c1.8-1,3.6-1.8,5.6-2.8l-4.9,12.8h-0.2c-0.5-1.8-1-3.6-1.5-5.4c-0.1-0.5-0.2-0.9-0.3-1.4C86.2,49.7,86.2,49.6,88,48.7z M63.8,14.9
	C66.4,17,73,24.8,75.9,28c1.5,1.6,2.9,3.2,3.2,5.5c0.3,1.3,0.6,2.5,1,3.8c0.6,2.1,1.1,4.1,1.6,6.2l-0.2,0.1
	c-1.1-1.2-2.2-2.4-3.3-3.6c-1.9-2.2-3.7-4.5-5.7-6.5c-2.3-2.4-4.7-4.4-7.2-6.8c-2.5-2.4-5.1-4.7-7.6-7.1c-2.6-2.4-5.1-4.9-7.7-7.4
	c-0.3-0.3-0.5-0.6-0.6-1c-0.2-1.7-0.3-3.4-0.4-5.1c0-0.5-0.1-1.1-0.2-1.6c0.9,1,4,3.3,4.3,3.6C58.1,11,60,11.8,63.8,14.9z
	 M63.1,27.9L63,28l-9.4-5.8c-0.2-0.2-0.4-0.3-0.7-0.5c-3.1-1-2.7-3.5-2.8-6.2L63.1,27.9z M56.1,26.7c4.1,2.5,8.2,5,12.3,7.5
	c0.8,0.5,1.6,1,2.4,1.6c0.4,0.2,0.6,0.6,0.8,1c1.6,4.9,3.1,9.9,4.6,14.9c0,0.2,0,0.4,0,0.6c-10.5-12.6-22.9-23-34.2-34.4L56.1,26.7z
	 M33.6,20.2c-0.1-0.1-0.3-0.3-0.3-0.5c-0.9-2.8-1.8-5.5-2.7-8.3l0.3-0.2l24.9,23.5l-0.1,0.2c-1.6-0.8-3.3-1.5-4.9-2.3
	c-2.8-1.4-5.6-2.7-8.3-4.2c-1.3-0.9-2.5-1.9-3.6-3C37.1,23.7,35.3,21.9,33.6,20.2z M47,46.8c-1.2-0.6-2.3-1.2-3.5-1.8
	c-0.2-0.1-0.5-0.3-0.6-0.6c-0.7-1.7-1.3-3.4-2.1-5.4l6.5,3c4.1,1.9,8.3,3.9,12.4,5.8c1.6,0.6,2.9,1.8,3.8,3.3
	c0.8,1.5,1.8,2.9,2.7,4.4L66,55.7l-7.8-3.6C54.5,50.4,50.7,48.6,47,46.8z M60,76.7c1.6-2.4,3.3-4.9,4.9-7.3c0.8-1.2,1.5-2.3,2.2-3.5
	c0-0.1,0-0.1,0.1-0.2c0.3-0.5,0.9-0.7,1.5-0.4c1.1,0.4,2.2,0.6,3.5,1c-1.9,2-3.6,4-5.3,6.1C65.1,74.9,62.5,75.7,60,76.7L60,76.7z
	 M41.7,98.5c-2.6,0-5.1,0-8,0v0c8.7-6.5,16.8-13.2,25.7-18.8l0.4,0.4c-0.4,0.4-0.7,0.9-1.2,1.3c-2.3,2.3-4.6,4.6-6.9,6.9
	c-3.1,3.2-6.3,6.5-9.4,9.7C42.2,98.2,41.9,98.5,41.7,98.5z M50.3,98.4C50.1,98.7,50,99,49.7,99c-1.8,0.4-3.6,0.7-5.4,1.1l-0.1-0.3
	l9-9.3c0.9-0.9,1.7-1.8,2.6-2.6c0.6-0.4,1.3-0.8,2-1.1l0.3,0.4L53.4,94C52.3,95.5,51.3,97,50.3,98.4z M59.8,93.4
	c-0.5,1.8-2,3.2-3.9,3.6c-0.7,0.2-1.4,0.5-2.1,0.8c1-1.4,1.8-2.5,2.6-3.7c1.8-2.6,3.5-5.2,5.4-7.8c0.5-0.6,1-1.1,1.6-1.5l0.3,0.3
	c-0.8,1.7-1.6,3.5-2.4,5.3C60.7,91.4,60.2,92.4,59.8,93.4z M67.9,78.9c-0.1,1.1-0.3,1.9-1.6,2.2c-2,0.6-3.9,1.4-6,2.2
	c5.5-6.2,10.9-12.2,16.5-18.5c-3.7-0.9-6.9-1.8-10.2-2.6c-2.9-0.8-5.9-1.5-8.9-2.2c-0.4-0.1-0.7-0.3-1-0.5c-1.3-1.3-2.6-2.7-4.1-4.3
	c2.4,0.4,4.4,0.9,6.4,1.1c4.1,0.3,7.5,2.5,11.1,4.1l2,0.9l0.2-0.2c-0.1-0.3-0.2-0.6-0.4-0.9c-2.5-4.2-5-8.3-7.6-12.5
	c-0.3-0.4-0.6-0.7-1.1-0.9c-5.5-2.6-11.1-5.2-16.6-7.8c-4.8-2.2-9.5-4.5-14.2-6.7c-0.3-0.1-0.5-0.3-0.6-0.5
	c-1.4-2.5-2.8-5.1-4.2-7.6l0.2-0.2c5,2.5,9.9,5,14.9,7.4c3.7,1.9,7.4,3.6,11.1,5.5c3.1,1.6,6.2,3,9.2,4.9c1.5,1.1,2.8,2.5,3.9,4
	c2.8,3,5.5,6.1,8.2,9.2c0.8,0.7,1.5,1.5,2.1,2.4c0.9,1.5,2.1,1.6,3.7,1.3l-5.5-18l0.1-0.1c0.9,0.9,1.7,1.8,2.6,2.8
	c1.7,1.9,3.4,3.9,5.1,5.9c0.4,0.6,0.6,1.2,0.7,1.8c0.9,3.5,1.8,7.1,2.8,10.6c0.2,0.7-0.1,1.5-0.7,1.8c-3.9,3.2-7.9,6.4-11.8,9.6
	c-1.9,1.6-3.8,3.1-5.7,4.7C68.1,78.1,67.9,78.5,67.9,78.9z M81.3,74.7c-0.3,0.9-1.1,1.6-2,1.9c-2.9,1-5.8,2.1-8.6,3.1
	c-0.2,0.1-0.4,0.1-0.5,0.1L70,79.7l14.1-11.6l0.3,0.2c-0.2,0.4-0.5,0.9-0.7,1.4C82.9,71.3,82,73,81.3,74.7z M94.3,79.8
	c-2.2-0.1-4.4-0.3-6.5-0.2c-1.6,0.2-3.1-0.6-3.9-2l5.3-2c0.5-0.2,1-0.5,1.5-0.6c0.3-0.1,0.7-0.2,0.9,0c1.3,1.2,2.8,0.8,4.5,0.7
	s3.2-0.2,4.9-0.1c-2.1,1.4-4.1,2.7-6.2,4.1C94.6,79.8,94.5,79.9,94.3,79.8z M97.1,83.4c-0.9-1.5-0.2-2.1,1-2.8
	c1.9-1.1,3.7-2.4,5.3-3.4l2.1,0.7c0.1-0.1,0.2-0.2,0.2-0.4c-0.5-1.8,0.8-2.6,2.1-3.4c2.9-1.9,5.8-3.9,8.8-5.8
	c0.3-0.2,0.7-0.4,1.2-0.7c-0.6,2.2-1,4.2-1.5,6.3c-0.8,3.3-1.7,6.5-2.5,9.7c-0.6,2.2-1,2.5-3.2,2.1C106,84.9,101.5,84.1,97.1,83.4z
	 M106.5,100.6l-0.3-0.2c0.2-0.7,0.3-1.3,0.5-2c0.9-3.2,1.7-6.5,2.7-9.7c0.2-0.3,0.5-0.6,0.8-0.6c4.6,0.2,4.8,0.1,6-4.5
	c0-0.2,0.1-0.3,0.2-0.6l13,2.1L106.5,100.6z M129.9,82.7l-12.9-2l3.4-13.2l9.7,15L129.9,82.7z"/>
</svg>
