<svg id="Layer_1_Image" data-name="Layer 1 Image" xmlns="http://www.w3.org/2000/svg" viewBox="0 0 153.83 131.05"><title>logo_transparent-B</title><path d="M-33.06,165.83c-2.87,0-3.74.82-3.77,3.66,0,1.51,0,3,.08,4.54,0,.78-.21,1.12-1,1-.58-.1-1.18-.09-1.85-.14V163.3h2.54l.15,1.17c1.2-.89,2.37-1.66,3.88-1.28Z" transform="translate(186.89 -48.26)"/><path d="M-106.36,87.74c-.53-2.07-1-4.13-1.61-6.19A34.6,34.6,0,0,1-109,77.76c-.33-2.29-1.74-3.87-3.2-5.45q-4.43-4.77-8.88-9.52c-3.8-4.08-7.6-8.17-11.43-12.22-.69-.73-.68-1.19,0-1.88s1.18-.48,1.77.15c2.57,2.78,5.18,5.53,7.78,8.29,3.19,3.39,6.4,6.77,9.58,10.18a59.48,59.48,0,0,1,5.21,5.92,15.31,15.31,0,0,1,1.73,4.66c1.27,4.44,2.45,8.91,3.73,13.63l7.49-4-3.32-6.09.2-.28c1.54.41,3.07.88,4.64,1.21a22.93,22.93,0,0,0,5.16.82c3.34-.08,6.26,1.17,9.12,2.55a5,5,0,0,1,2,2.68c.7,1.92,2.34,2.53,3.85,3.45a5.65,5.65,0,0,1,1.89,1.81,38.07,38.07,0,0,1,1.86,3.93c-2.5-.2-4.76-.43-7-.55a4.58,4.58,0,0,0-2,.36A11,11,0,0,0-82,99.11a22.19,22.19,0,0,0-2.91,3.55c-2.71,3.78-5.37,7.59-8,11.4-.7,1-1.35,2.06-2.18,3.31a6.92,6.92,0,0,0,1.39.29c2.31-.08,4.62-.21,6.93-.31a2.79,2.79,0,0,1,1.19,0c1.83.83,3-.47,4.23-1.32,4.24-2.81,8.49-5.6,12.72-8.44.62-.42.93-.31,1.32.3q4.08,6.31,8.21,12.61,2.41,3.69,4.93,7.32c.59.86.58,1.38-.4,2-2.74,1.7-5.41,3.52-8.09,5.32-4.55,3-9.07,6.14-13.62,9.18-2.52,1.69-5.09,3.3-7.6,5-.63.42-1,.45-1.46-.21-.77-1.2-1.57-2.37-2.45-3.68l-5.83,4a12.74,12.74,0,0,1-1.58,1.05c-.63.3-1.33.42-1.78-.35a1.25,1.25,0,0,1,.44-1.86c2.38-1.58,4.74-3.17,7.13-4.74.75-.5,1.64-1.37,2.31-1.24s1.11,1.31,1.66,2c.15.19.32.35.61.66,1.24-4.42,2.43-8.69,3.66-13.06l-13.69-2.1c.54.92,1,1.69,1.42,2.41a.91.91,0,0,1-.27,1.43c-2.43,1.6-4.86,3.19-7.28,4.8-.66.44-1.26,1-2,1.38s-1.53.85-2.22-.06c-.56-.74-.3-1.46.75-2.15,2.65-1.74,5.32-3.47,8.06-5.25L-99,128l1.95-1.8c-1.84,0-3.39-.08-4.92,0a2.76,2.76,0,0,1-2.81-1.08c-1.25-1.83-2.67-2.29-4.88-1.34-3.43,1.48-7,2.51-10.55,3.83a2.9,2.9,0,0,0-1.45,1.4c-1.83,3.84-3.6,7.71-5.37,11.59a3.52,3.52,0,0,1-2.41,2.19c-3.63,1-7.17,2.38-10.83,3.29a75.4,75.4,0,0,1-10.5,1.67l2.13-2.47H-161.4l-.14-.26c.3-.26.58-.54.89-.78,3.07-2.28,6.15-4.55,9.2-6.86,4.11-3.11,8.18-6.28,12.29-9.4,2-1.53,4.12-3,6.15-4.5a4.36,4.36,0,0,0,1-1.15c2.51-3.86,5-7.74,7.52-11.6.43-.67.92-1.29,1.44-2-2.9-.72-5.73-1.37-8.51-2.16a5.16,5.16,0,0,1-2.29-1.34c-2.51-2.66-4.93-5.42-7.37-8.15a12,12,0,0,1-.74-1.15l7.38,1.24.1-.28-5.69-2.62c-1.77-.82-3.5-1.75-5.33-2.39s-2-2.18-2.56-3.5a32,32,0,0,1-1.8-4.68,4.59,4.59,0,0,0-3-3.2c-1.51-.62-3-1.27-4.46-2a3.53,3.53,0,0,1-1.38-1.33c-2.17-3.94-4.28-7.91-6.42-11.87-.45-.82-1-1.6-1.44-2.41l.3-.4,11.68,5.83a2.56,2.56,0,0,0-.31-.52c-2.13-1.65-3.09-3.92-3.75-6.47-.93-3.54-2.09-7-3.15-10.53-.11-.37-.15-.75-.27-1.33L-140.42,63c-.34-5-.66-9.68-1-14.34,2.11-.49,2.34-.3,2.44,1.66.1,1.72.22,3.43.39,5.14A1.93,1.93,0,0,0-138,56.5q3.81,3.72,7.68,7.38c2.51,2.38,5.06,4.73,7.59,7.09s4.92,4.43,7.23,6.8c2,2,3.76,4.33,5.65,6.49,1.07,1.21,2.19,2.38,3.29,3.57Zm-54-19.55-.23.17c1.4,2.54,2.8,5.07,4.23,7.6a1.44,1.44,0,0,0,.63.5q7.11,3.38,14.24,6.73c5.54,2.61,11.09,5.19,16.62,7.81a2.58,2.58,0,0,1,1.06.9q3.81,6.21,7.56,12.46a6.47,6.47,0,0,1,.39.89l-.2.24-2-.85c-3.63-1.58-7-3.76-11.14-4.07-2-.16-4-.67-6.38-1.08,1.53,1.64,2.79,3,4.09,4.35a2.23,2.23,0,0,0,1,.52c3,.76,6,1.48,8.94,2.23,3.26.82,6.52,1.66,10.19,2.6-5.6,6.29-11,12.34-16.49,18.5,2.06-.78,4-1.66,6-2.22,1.3-.36,1.53-1.1,1.6-2.21a1.86,1.86,0,0,1,.54-1.19c1.88-1.59,3.81-3.13,5.72-4.68q5.91-4.81,11.83-9.63a1.57,1.57,0,0,0,.68-1.84c-1-3.53-1.86-7.09-2.8-10.64a4.92,4.92,0,0,0-.74-1.84c-1.66-2-3.4-3.91-5.11-5.85-.84-1-1.7-1.89-2.55-2.83l-.15.08,5.55,18c-1.61.3-2.86.26-3.72-1.29a14.59,14.59,0,0,0-2.11-2.43c-2.74-3.06-5.47-6.12-8.23-9.15A20.33,20.33,0,0,0-125.21,86c-2.92-1.82-6.07-3.29-9.16-4.85-3.69-1.86-7.42-3.65-11.12-5.5C-150.47,73.21-155.44,70.69-160.41,68.19Zm14.16-5.93C-134.87,73.64-122.46,84-112,96.62A2.79,2.79,0,0,0-112,96c-1.53-5-3-9.91-4.6-14.85a2.15,2.15,0,0,0-.78-1c-.76-.57-1.57-1.08-2.39-1.58-4.09-2.52-8.2-5-12.3-7.54Zm75.83,49.58c-.55.33-.92.54-1.28.78-2.92,1.94-5.82,3.89-8.75,5.83-1.22.81-2.54,1.53-2.06,3.38a3.63,3.63,0,0,1-.23.35l-2.06-.67c-1.58,1-3.4,2.28-5.32,3.38-1.18.68-1.93,1.34-1,2.82,4.41.74,8.93,1.48,13.44,2.25,2.2.37,2.61.11,3.17-2.08.83-3.25,1.68-6.49,2.51-9.74C-71.46,116.11-71,114.07-70.42,111.84Zm-27-7.19,1.3-.68,6.36-3.52c3-1.66,6.06-3.31,9.09-5a5.41,5.41,0,0,1,3.83-.93A24.68,24.68,0,0,0-74,94.8l.12-.38a12.64,12.64,0,0,0-2.27-1.13A3.76,3.76,0,0,1-79.1,90.6a5,5,0,0,0-2-2.85c-2.53-1.17-5.12-2.34-8.09-2.15a28.08,28.08,0,0,1-4.4-.35c.82,1.84,3.12,2.15,4.66,3.78l-2.59.27Zm38.67,24.81-13-2.1c-.09.29-.14.43-.18.58-1.23,4.55-1.39,4.66-6,4.45a1.12,1.12,0,0,0-.84.64c-.93,3.22-1.79,6.45-2.67,9.68-.18.67-.34,1.35-.5,2l.26.2Zm-98.59-73.91-.35.2c.91,2.75,1.81,5.5,2.73,8.25a1.23,1.23,0,0,0,.32.49c1.79,1.76,3.56,3.53,5.39,5.24a20.75,20.75,0,0,0,3.56,3c2.68,1.54,5.49,2.87,8.27,4.24,1.6.8,3.23,1.52,4.85,2.27l.13-.21ZM-122.1,100l.18-.17c-.91-1.47-1.94-2.87-2.7-4.41a7.14,7.14,0,0,0-3.75-3.27c-4.16-1.91-8.28-3.87-12.42-5.81l-6.52-3c.78,2,1.42,3.72,2.1,5.4a1.31,1.31,0,0,0,.58.56c1.14.62,2.29,1.25,3.47,1.81,3.76,1.8,7.54,3.57,11.31,5.34Zm54.31,11.77L-71.15,125l12.86,2,.22-.27Zm-86.62,31c2.89,0,5.42,0,8,0,.21,0,.45-.26.63-.45,3.13-3.24,6.24-6.5,9.38-9.73,2.28-2.34,4.62-4.62,6.92-6.94.41-.41.77-.85,1.15-1.28l-.36-.42C-137.59,129.56-145.7,136.27-154.41,142.73Zm66.41-40-.18-.14c-3.53,1.91-7.06,3.81-10.57,5.76a2.56,2.56,0,0,0-.82,1.12c-.71,1.52-1.36,3-2.05,4.57s-1.49,3.21-2.23,4.82l.17.24c1.87-.75,3.74-1.49,5.6-2.26.19-.08.33-.33.46-.51,1.8-2.52,3.61-5,5.4-7.57Zm-16.29,19.23a3.86,3.86,0,0,0,3.91,2c2.17-.13,4.36.1,6.55.16a.84.84,0,0,0,.45-.06c2.07-1.35,4.14-2.72,6.2-4.08-1.71-.11-3.33.09-4.95.1s-3.11.45-4.45-.74c-.16-.15-.59-.08-.86,0-.53.17-1,.44-1.54.64Zm-23.82-.88c2.51-1.14,5.08-1.93,6.77-4.31a79.1,79.1,0,0,1,5.3-6.13c-1.27-.37-2.39-.64-3.47-1a1.07,1.07,0,0,0-1.52.58c-.68,1.22-1.45,2.38-2.21,3.54C-124.85,116.17-126.49,118.62-128.11,121.06Zm-15.74,23,.09.27c1.78-.35,3.57-.68,5.35-1.07.22,0,.41-.35.56-.57q1.54-2.19,3.07-4.4l4.8-6.93-.26-.37a10.92,10.92,0,0,0-2,1.14c-.93.8-1.74,1.74-2.6,2.63ZM-118.13,124l.14.23a5.29,5.29,0,0,0,.54-.13c2.87-1,5.73-2.13,8.62-3.15a3.21,3.21,0,0,0,2-1.92c.72-1.72,1.58-3.37,2.39-5,.23-.48.47-1,.71-1.42l-.26-.17Zm23.55-33.85c-2,1-3.8,1.89-5.57,2.84s-1.84,1-1.31,3.12c.12.46.18.94.3,1.4.48,1.81,1,3.61,1.47,5.41l.24,0Zm-43.5-30.27c.14,2.69-.26,5.26,2.81,6.23a3.31,3.31,0,0,1,.68.47l9.41,5.78.12-.14Zm13.52,69.56-.36-.3a12.47,12.47,0,0,0-1.56,1.52c-1.82,2.56-3.57,5.17-5.36,7.76-.79,1.14-1.6,2.28-2.58,3.67a18.3,18.3,0,0,1,2.14-.75,5.15,5.15,0,0,0,3.9-3.58c.4-1,.93-2,1.4-3Q-125.78,132-124.56,129.41Z" transform="translate(186.89 -48.26)"/><path d="M-154,174.91V163.09l2.55.12.15,1c2.69-1.66,5-1.38,6.46.14a23.83,23.83,0,0,1,4.29-1.14,3.83,3.83,0,0,1,4.33,3.8c.16,2.58,0,5.18,0,7.86h-2.79c0-1.21,0-2.44,0-3.66s0-2.41-.08-3.59a2,2,0,0,0-2.28-2,2,2,0,0,0-2.14,2c-.14,1.68-.15,3.36-.21,5,0,.72,0,1.44,0,2.22h-2.89V170c0-.76,0-1.52,0-2.28-.11-1.42-.82-2.12-2.08-2.13a2.28,2.28,0,0,0-2.39,2.2c-.12,1.95-.12,3.91-.18,5.87,0,.4,0,.79-.06,1.24Z" transform="translate(186.89 -48.26)"/><path d="M-113.27,175.82a36.5,36.5,0,0,0,4.07,1c2.24.28,3.48-1,3.31-3.47a5.62,5.62,0,0,1-4.72,1,5.66,5.66,0,0,1-3.32-2.39,6,6,0,0,1,.64-7.29c2-2,4.82-2.2,7.48-.38l.2-1.05h2.6c0,1.42,0,2.77,0,4.12,0,2,.08,4,.05,6,0,3.21-1.78,6.2-5.94,5.89a16.49,16.49,0,0,1-4.06-.79c-1.39-.49-1.42-.87-.66-2.14C-113.48,176.11-113.32,175.89-113.27,175.82Zm7.45-7c0-2.07-1.12-3.31-3-3.32a3.11,3.11,0,0,0-3.17,3.31,3.09,3.09,0,0,0,3.21,3.27A3,3,0,0,0-105.82,168.85Z" transform="translate(186.89 -48.26)"/><path d="M-41.85,170h-8.31c.51,2.8,3.43,3.44,6.22,1.38l1.46,1.62a6.15,6.15,0,0,1-7.89,1.21,6.13,6.13,0,0,1-2.37-7.67,6,6,0,0,1,6.81-3.39C-43.17,163.84-41.54,166.49-41.85,170Zm-2.8-2.06a2.74,2.74,0,0,0-2.72-2.5,2.63,2.63,0,0,0-2.81,2.5Z" transform="translate(186.89 -48.26)"/><path d="M-71.68,170h-8.49c.81,2.86,3.59,3.47,6.27,1.52.07,0,.17,0,.22.07,1.66,1.75,1.6,2.07-.64,3a6.28,6.28,0,0,1-7.68-2,6.35,6.35,0,0,1,.81-8.1,5.24,5.24,0,0,1,5.76-1.12,4.84,4.84,0,0,1,3.63,4.42C-71.76,168.5-71.72,169.16-71.68,170Zm-8.45-2h5.57A2.5,2.5,0,0,0-77,165.44,2.84,2.84,0,0,0-80.13,168Z" transform="translate(186.89 -48.26)"/><path d="M-176.6,162.1H-184v3.6c0,.8.58.73,1.09.74h5.65v2.48c-1.91,0-3.73,0-5.56,0-1,0-1.25.28-1.2,1.22.07,1.55,0,3.1,0,4.73h-2.84V159.69h10.29Z" transform="translate(186.89 -48.26)"/><path d="M-168.08,168c-.22-2.74-2.32-3.23-5.86-1.48l-1-1.73c1.22-1.45,4.61-2.21,6.68-1.53,1.87.62,2.92,2.12,3,4.55s0,4.69,0,7c-2.24.31-2.41.26-2.64-.86a5.11,5.11,0,0,1-5.17.87,3.18,3.18,0,0,1-2.27-3.51,3.16,3.16,0,0,1,2.64-3.11,13.2,13.2,0,0,1,2.26-.21C-169.67,168-168.91,168-168.08,168Zm0,2a16.57,16.57,0,0,0-3.08,0,1.91,1.91,0,0,0-1.33,1.17,2,2,0,0,0,1,1.5C-169.72,173.6-167.93,172.25-168,170Z" transform="translate(186.89 -48.26)"/><path d="M-127.59,163.2h2.37l.23,1a16.61,16.61,0,0,1,3.08-1.08,4.11,4.11,0,0,1,5,3.67c.25,2.68.06,5.4.06,8.15h-2.77c0-2.32,0-4.54,0-6.76a2.32,2.32,0,0,0-3-2.5,2.65,2.65,0,0,0-2.14,2.79c0,1.75,0,3.51,0,5.26,0,.39,0,.78-.07,1.23h-2.76Z" transform="translate(186.89 -48.26)"/><path d="M-91.36,159.7v12.65h7.19a2.19,2.19,0,0,1,.18.53c.17,2,.17,2-1.88,2h-8.31V159.7Z" transform="translate(186.89 -48.26)"/><path d="M-60.41,165.66l-1.92-.16v-2.18l1.74-.16c.11-.9-.06-2,.41-2.51s1.56-.17,2.48-.22v2.76h3v2.33l-2.89.13c0,2,0,4,0,5.9a1.11,1.11,0,0,0,1.42,1.08,10.88,10.88,0,0,0,1.44-.4c.06,0,.12.05.13.08,1.08,2.07.66,2.77-1.67,2.83-2.61.06-4-1.14-4.11-3.72C-60.48,169.52-60.41,167.61-60.41,165.66Z" transform="translate(186.89 -48.26)"/><path d="M-63.33,172.2c1.24,2.49.62,2.74-1.72,2.88-2.69.15-4.13-1.37-4.07-4.09,0-1.36,0-2.72,0-4.08,0-.35,0-.71-.07-1.15l-1.61-.17v-2.28l1.71-.13v-2.55c2.77-.52,2.77-.52,2.85,2.59h2.79v2.39h-2.82c0,2.08-.06,4.07,0,6,0,.78.73,1.13,1.5,1A11.54,11.54,0,0,0-63.33,172.2Z" transform="translate(186.89 -48.26)"/><path d="M-159.49,174.88h-2.84V163.3h2.53l.14.85,3.81-1.33v2.91l-.62.07c-2.15.19-3,1-3,3.19C-159.51,170.91-159.49,172.82-159.49,174.88Z" transform="translate(186.89 -48.26)"/><path d="M-133.26,163.36h2.68v11.56h-2.68Z" transform="translate(186.89 -48.26)"/><path d="M-96.6,140.39c-.28-.3-.8-.6-.87-1a1.51,1.51,0,0,1,.48-1.27c1.81-1.3,3.67-2.52,5.52-3.76.68-.47,1.36-1,2-1.41s1.4-.54,1.91.17a1.21,1.21,0,0,1-.39,1.78c-2.55,1.75-5.12,3.46-7.69,5.18A5.17,5.17,0,0,1-96.6,140.39Z" transform="translate(186.89 -48.26)"/><path d="M-86.34,138.79a4.86,4.86,0,0,1-.88,1.05q-3.78,2.52-7.61,5c-.66.42-1.4.55-1.88-.24s-.09-1.37.59-1.82c2.53-1.67,5-3.36,7.6-5a1.79,1.79,0,0,1,1.42-.06C-86.79,137.83-86.62,138.36-86.34,138.79Z" transform="translate(186.89 -48.26)"/><path d="M-103.25,145.35c-.51-.43-1-.64-1.09-1s-.11-1,.11-1.17a40.67,40.67,0,0,1,4-2.71c.24-.15,1,.14,1.19.43s.31,1.12.12,1.27C-100.26,143.29-101.72,144.28-103.25,145.35Z" transform="translate(186.89 -48.26)"/><path d="M-105.5,146.38c-.07.12-.14.49-.36.64a26.24,26.24,0,0,1-3.31,2.09,1.53,1.53,0,0,1-1.46-.4,1.57,1.57,0,0,1,.25-1.52,18.92,18.92,0,0,1,3.17-2.06C-106.28,144.64-105.49,145.2-105.5,146.38Z" transform="translate(186.89 -48.26)"/><path d="M-101.14,149.11c-1.37-.05-1.93-1.14-1.23-1.82a10.88,10.88,0,0,1,2.91-1.94c.33-.16,1.11.28,1.43.65.16.2-.09,1-.4,1.29C-99.37,148-100.43,148.64-101.14,149.11Z" transform="translate(186.89 -48.26)"/><path d="M-132,161.71a1.81,1.81,0,0,1-1.83-1.8,1.74,1.74,0,0,1,1.87-1.6,1.57,1.57,0,0,1,1.7,1.7A1.62,1.62,0,0,1-132,161.71Z" transform="translate(186.89 -48.26)"/><path d="M-108.82,143.66c-.5-.43-1.05-.68-1.16-1.06a1.58,1.58,0,0,1,.39-1.29,4,4,0,0,1,1.67-1.07,1.75,1.75,0,0,1,1.51.4c.2.19,0,1.07-.27,1.39A15.71,15.71,0,0,1-108.82,143.66Z" transform="translate(186.89 -48.26)"/><path d="M-87.09,89c2.76-.06,5.51-.83,6.83,2.72-1.32.07-2.76.51-3.86.09S-86,90.08-87.09,89Z" transform="translate(186.89 -48.26)"/></svg>